#usda 1.0
(
    doc = """Test: Closed-loop heart-shaped cable (newton:closed = true).

    A heart-shaped ring of 48 nodes lying in the XZ plane at y=0, z-center=0.5.
    Generated via arc-length-uniform resampling of the classic parametric heart:
      x = 16 sin^3(t),  y = 13 cos(t) - 5 cos(2t) - 2 cos(3t) - cos(4t)
    Scaled to fit within ±0.14m. Segment lengths: min~1.2mm, max~18.6mm (heart cusp).

    The ring is free-hanging (no fixedPoints, no attachments).
    newton:closed=true adds a loop-closing joint between node 47 and node 0.

    Tests:
      - newton:closed = true (loop-closing joint)
      - wrapInArticulation = true
      - Non-uniform segment lengths (heart cusp geometry)
      - Free-hanging ring under gravity"""
    defaultPrim = "World"
    metersPerUnit = 1
    upAxis = "Z"
)

def Xform "World"
{
    def Xform "ring"
    {
        def Xform "curve_0" (
            prepend apiSchemas = ["NewtonRodAPI", "MaterialBindingAPI"]
        )
        {
            rel material:binding = </World/Looks/CablePhysicsMaterial> (
                bindMaterialAs = "weakerThanDescendants"
            )
            point3f[] newton:points = [(0.00000, 0.00000, 0.56596), (0.00491, 0.00000, 0.58383), (0.01455, 0.00000, 0.59971), (0.02780, 0.00000, 0.61273), (0.04397, 0.00000, 0.62185), (0.06201, 0.00000, 0.62622), (0.08056, 0.00000, 0.62549), (0.09828, 0.00000, 0.61991), (0.11403, 0.00000, 0.61007), (0.12685, 0.00000, 0.59663), (0.13575, 0.00000, 0.58033), (0.13981, 0.00000, 0.56222), (0.13863, 0.00000, 0.54369), (0.13280, 0.00000, 0.52605), (0.12354, 0.00000, 0.50992), (0.11203, 0.00000, 0.49528), (0.09916, 0.00000, 0.48183), (0.08549, 0.00000, 0.46919), (0.07142, 0.00000, 0.45698), (0.05725, 0.00000, 0.44489), (0.04327, 0.00000, 0.43259), (0.02980, 0.00000, 0.41973), (0.01729, 0.00000, 0.40594), (0.00656, 0.00000, 0.39074), (0.00000, 0.00000, 0.37346), (-0.00656, 0.00000, 0.39074), (-0.01729, 0.00000, 0.40594), (-0.02980, 0.00000, 0.41973), (-0.04327, 0.00000, 0.43259), (-0.05725, 0.00000, 0.44489), (-0.07142, 0.00000, 0.45698), (-0.08549, 0.00000, 0.46919), (-0.09916, 0.00000, 0.48183), (-0.11203, 0.00000, 0.49528), (-0.12354, 0.00000, 0.50992), (-0.13280, 0.00000, 0.52605), (-0.13863, 0.00000, 0.54369), (-0.13981, 0.00000, 0.56222), (-0.13575, 0.00000, 0.58033), (-0.12685, 0.00000, 0.59663), (-0.11403, 0.00000, 0.61007), (-0.09828, 0.00000, 0.61991), (-0.08056, 0.00000, 0.62549), (-0.06201, 0.00000, 0.62622), (-0.04397, 0.00000, 0.62185), (-0.02780, 0.00000, 0.61273), (-0.01455, 0.00000, 0.59971), (-0.00491, 0.00000, 0.58383)]
            float[] newton:radius = [0.00400]
            float newton:contact_ke = 100.0
            float newton:contact_kd = 1.0
            # 48 nodes arc-length-uniform on a heart curve, XZ plane, z-center=0.5
            # x = 16 sin^3(t), y = 13 cos(t) - 5 cos(2t) - 2 cos(3t) - cos(4t), scaled to ±0.14m
            # Closed ring — loop-closing joint connects node 47 back to node 0
            bool newton:closed = true
            int[] newton:fixedPoints = []
            # Uniform stiffness (length-1 = broadcast to all segments)
            float[] newton:stretchStiffness = [150000.0]
            float[] newton:stretchDamping = [0.0]
            float[] newton:bendStiffness = [800.0]
            float[] newton:bendDamping = [0.001]
            # wrapInArticulation=true: the 47 chain joints form an articulation tree;
            # the loop-closing joint connecting node 47 back to node 0 is excluded automatically.
            bool newton:wrapInArticulation = true

            def BasisCurves "visual" (
                prepend apiSchemas = ["NewtonRodVisualCurveAPI"]
            ) {
                uniform token[] curveType = ["linear"]
                int[] curveVertexCounts = [48]
                int[] newton:rodPointIndices = [0, 1, 2, 3, 4, 5, 6, 7, 8, 9, 10, 11, 12, 13, 14, 15, 16, 17, 18, 19, 20, 21, 22, 23, 24, 25, 26, 27, 28, 29, 30, 31, 32, 33, 34, 35, 36, 37, 38, 39, 40, 41, 42, 43, 44, 45, 46, 47]
                uniform token type = "linear"
                uniform token wrap = "nonperiodic"
                float[] widths = [0.008, 0.008, 0.008, 0.008, 0.008, 0.008, 0.008, 0.008, 0.008, 0.008, 0.008, 0.008, 0.008, 0.008, 0.008, 0.008, 0.008, 0.008, 0.008, 0.008, 0.008, 0.008, 0.008, 0.008, 0.008, 0.008, 0.008, 0.008, 0.008, 0.008, 0.008, 0.008, 0.008, 0.008, 0.008, 0.008, 0.008, 0.008, 0.008, 0.008, 0.008, 0.008, 0.008, 0.008, 0.008, 0.008, 0.008, 0.008]
                point3f[] points = [(0.00000, 0.00000, 0.56596), (0.00491, 0.00000, 0.58383), (0.01455, 0.00000, 0.59971), (0.02780, 0.00000, 0.61273), (0.04397, 0.00000, 0.62185), (0.06201, 0.00000, 0.62622), (0.08056, 0.00000, 0.62549), (0.09828, 0.00000, 0.61991), (0.11403, 0.00000, 0.61007), (0.12685, 0.00000, 0.59663), (0.13575, 0.00000, 0.58033), (0.13981, 0.00000, 0.56222), (0.13863, 0.00000, 0.54369), (0.13280, 0.00000, 0.52605), (0.12354, 0.00000, 0.50992), (0.11203, 0.00000, 0.49528), (0.09916, 0.00000, 0.48183), (0.08549, 0.00000, 0.46919), (0.07142, 0.00000, 0.45698), (0.05725, 0.00000, 0.44489), (0.04327, 0.00000, 0.43259), (0.02980, 0.00000, 0.41973), (0.01729, 0.00000, 0.40594), (0.00656, 0.00000, 0.39074), (0.00000, 0.00000, 0.37346), (-0.00656, 0.00000, 0.39074), (-0.01729, 0.00000, 0.40594), (-0.02980, 0.00000, 0.41973), (-0.04327, 0.00000, 0.43259), (-0.05725, 0.00000, 0.44489), (-0.07142, 0.00000, 0.45698), (-0.08549, 0.00000, 0.46919), (-0.09916, 0.00000, 0.48183), (-0.11203, 0.00000, 0.49528), (-0.12354, 0.00000, 0.50992), (-0.13280, 0.00000, 0.52605), (-0.13863, 0.00000, 0.54369), (-0.13981, 0.00000, 0.56222), (-0.13575, 0.00000, 0.58033), (-0.12685, 0.00000, 0.59663), (-0.11403, 0.00000, 0.61007), (-0.09828, 0.00000, 0.61991), (-0.08056, 0.00000, 0.62549), (-0.06201, 0.00000, 0.62622), (-0.04397, 0.00000, 0.62185), (-0.02780, 0.00000, 0.61273), (-0.01455, 0.00000, 0.59971), (-0.00491, 0.00000, 0.58383)]
            }
        }
    }
    def Scope "Looks"
    {
        def Material "CablePhysicsMaterial" (
            prepend apiSchemas = ["PhysicsMaterialAPI", "NewtonMaterialAPI"]
        )
        {
            float physics:dynamicFriction = 0.5
            float physics:staticFriction = 0.5
            float newton:contactStiffness = 100.0
            float newton:contactDamping = 1.0
        }
    }
}
