#usda 1.0
(
    defaultPrim = "World"
    doc = """Sample: AOUSD PhysicsElementCollisionFilter on many curve segments.

A kinematic long box overlaps the first half of a 50-segment cable. The second
half is outside the box. The element collision filter suppresses only the
inside segment-vs-box collision pairs, so the embedded half does not generate
contacts while the outside half remains unfiltered."""
    metersPerUnit = 1
    upAxis = "Z"
)

def Xform "World"
{
    def Cube "LongBox" (
        prepend apiSchemas = ["PhysicsRigidBodyAPI", "PhysicsCollisionAPI"]
    )
    {
        bool physics:kinematicEnabled = 1
        double size = 2
        double3 xformOp:translate = (-0.25, 0, 0.05)
        double3 xformOp:scale = (0.28, 0.04, 0.04)
        uniform token[] xformOpOrder = ["xformOp:translate", "xformOp:scale"]
    }

    def Xform "rod"
    {
        def Xform "curve_0" (
            prepend apiSchemas = ["PhysicsDeformableBodyAPI", "MaterialBindingAPI", "NewtonArticulationRootAPI"]
        )
        {
            rel material:binding = </World/Looks/CablePhysicsMaterial> (
                bindMaterialAs = "weakerThanDescendants"
            )

            def BasisCurves "visual" (
                prepend apiSchemas = ["PhysicsCurvesDeformableSimAPI"]
            )
            {
                uniform token[] curveType = ["linear"]
                int[] curveVertexCounts = [51]
                point3f[] points = [(-0.500, 0, 0.05), (-0.480, 0, 0.05), (-0.460, 0, 0.05), (-0.440, 0, 0.05), (-0.420, 0, 0.05), (-0.400, 0, 0.05), (-0.380, 0, 0.05), (-0.360, 0, 0.05), (-0.340, 0, 0.05), (-0.320, 0, 0.05), (-0.300, 0, 0.05), (-0.280, 0, 0.05), (-0.260, 0, 0.05), (-0.240, 0, 0.05), (-0.220, 0, 0.05), (-0.200, 0, 0.05), (-0.180, 0, 0.05), (-0.160, 0, 0.05), (-0.140, 0, 0.05), (-0.120, 0, 0.05), (-0.100, 0, 0.05), (-0.080, 0, 0.05), (-0.060, 0, 0.05), (-0.040, 0, 0.05), (-0.020, 0, 0.05), (0.080, 0, 0.16), (0.100, 0, 0.16), (0.120, 0, 0.16), (0.140, 0, 0.16), (0.160, 0, 0.16), (0.180, 0, 0.16), (0.200, 0, 0.16), (0.220, 0, 0.16), (0.240, 0, 0.16), (0.260, 0, 0.16), (0.280, 0, 0.16), (0.300, 0, 0.16), (0.320, 0, 0.16), (0.340, 0, 0.16), (0.360, 0, 0.16), (0.380, 0, 0.16), (0.400, 0, 0.16), (0.420, 0, 0.16), (0.440, 0, 0.16), (0.460, 0, 0.16), (0.480, 0, 0.16), (0.500, 0, 0.16), (0.520, 0, 0.16), (0.540, 0, 0.16), (0.560, 0, 0.16), (0.580, 0, 0.16)]
                uniform token type = "linear"
                float[] widths = [0.010, 0.010, 0.010, 0.010, 0.010, 0.010, 0.010, 0.010, 0.010, 0.010, 0.010, 0.010, 0.010, 0.010, 0.010, 0.010, 0.010, 0.010, 0.010, 0.010, 0.010, 0.010, 0.010, 0.010, 0.010, 0.010, 0.010, 0.010, 0.010, 0.010, 0.010, 0.010, 0.010, 0.010, 0.010, 0.010, 0.010, 0.010, 0.010, 0.010, 0.010, 0.010, 0.010, 0.010, 0.010, 0.010, 0.010, 0.010, 0.010, 0.010, 0.010]
                uniform token wrap = "nonperiodic"
            }

            def PhysicsAttachment "attachment_left"
            {
                vector3f[] physics:coords0 = []
                vector3f[] physics:coords1 = [(-0.25, 0, 0)]
                float physics:damping = 0
                int[] physics:indices0 = [0]
                int[] physics:indices1 = []
                rel physics:src0 = </World/rod/curve_0/visual>
                rel physics:src1 = </World/LongBox>
                float physics:stiffness = inf
                uniform token physics:type0 = "point"
                uniform token physics:type1 = "xform"
            }

            def PhysicsAttachment "attachment_right"
            {
                vector3f[] physics:coords0 = []
                vector3f[] physics:coords1 = [(0.83, 0, 0.11)]
                float physics:damping = 0
                int[] physics:indices0 = [50]
                int[] physics:indices1 = []
                rel physics:src0 = </World/rod/curve_0/visual>
                rel physics:src1 = </World>
                float physics:stiffness = inf
                uniform token physics:type0 = "point"
                uniform token physics:type1 = "xform"
            }

            def PhysicsElementCollisionFilter "filter_box_overlap"
            {
                bool physics:filterEnabled = true
                rel physics:src0 = </World/rod/curve_0/visual>
                rel physics:src1 = </World/LongBox>
                int[] physics:groupElemCounts0 = [25]
                int[] physics:groupElemIndices0 = [0, 1, 2, 3, 4, 5, 6, 7, 8, 9, 10, 11, 12, 13, 14, 15, 16, 17, 18, 19, 20, 21, 22, 23, 24]
                int[] physics:groupElemCounts1 = []
                int[] physics:groupElemIndices1 = []
            }
        }
    }

    def Scope "Looks"
    {
        def Material "CablePhysicsMaterial" (
            prepend apiSchemas = ["PhysicsMaterialAPI", "PhysicsCurvesDeformableMaterialAPI", "NewtonMaterialAPI", "NewtonCurvesDeformableMaterialAPI"]
        )
        {
            float newton:bendDamping = 0.1
            float newton:contactDamping = 1
            float newton:contactStiffness = 100
            float newton:stretchDamping = 0.00001
            float physics:bendStiffness = 1000
            float physics:dynamicFriction = 0.5
            float physics:staticFriction = 0.5
            float physics:stretchStiffness = 100000
            float physics:thickness = 0.010
        }
    }
}
