#usda 1.0
(
    defaultPrim = "World"
    doc = """Test: 20-node linear chain with per-segment tapered radius.

    Shape: horizontal line from (-0.19, 0, 0.5) to (0.19, 0, 0.5), 19 segments of 0.02m each.
    First node is fixed (kinematic anchor).

    Radius profile (19 segments):
      Segments 0-3:  4mm  (thick end, near fixed anchor)
      Segments 4-6:  3mm  (taper down)
      Segments 7-11: 2mm  (thin midsection)
      Segments 12-14: 3mm (taper up)
      Segments 15-18: 4mm (thick end, free tip)

    Visual BasisCurves widths = 2 * per-segment radius, so the rendered
    curve should visually appear thin in the middle and thick at both ends.

    Tests:
      - float[] newton:radius with length E (per-segment)
      - Visual widths sync from radius array
      - Fixed single node at index 0"""
    metersPerUnit = 1
    upAxis = "Z"
)

def Xform "World"
{
    def Xform "rod" (
        prepend apiSchemas = ["NewtonRodAPI", "MaterialBindingAPI"]
    )
    {
        rel material:binding = </World/Looks/CablePhysicsMaterial> (
            bindMaterialAs = "weakerThanDescendants"
        )
        float[] newton:bendDamping = [0.001]
        float[] newton:bendStiffness = [500]
        float newton:contact_kd = 1
        float newton:contact_ke = 100
        int2[] newton:edges = [(0, 1), (1, 2), (2, 3), (3, 4), (4, 5), (5, 6), (6, 7), (7, 8), (8, 9), (9, 10), (10, 11), (11, 12), (12, 13), (13, 14), (14, 15), (15, 16), (16, 17), (17, 18), (18, 19)]
        point3f[] newton:points = [(-0.19, 0, 0.5), (-0.17, 0, 0.5), (-0.15, 0, 0.5), (-0.13, 0, 0.5), (-0.11, 0, 0.5), (-0.09, 0, 0.5), (-0.07, 0, 0.5), (-0.05, 0, 0.5), (-0.03, 0, 0.5), (-0.01, 0, 0.5), (0.01, 0, 0.5), (0.03, 0, 0.5), (0.05, 0, 0.5), (0.07, 0, 0.5), (0.09, 0, 0.5), (0.11, 0, 0.5), (0.13, 0, 0.5), (0.17, 0, 0.5), (0.19, 0, 0.5), (0.21, 0, 0.5)]
        float[] newton:radius = [0.004, 0.004, 0.004, 0.004, 0.003, 0.003, 0.003, 0.002, 0.002, 0.002, 0.002, 0.002, 0.003, 0.003, 0.003, 0.004, 0.004, 0.004, 0.004]
        float[] newton:stretchDamping = [0]
        float[] newton:stretchStiffness = [100000]
        bool newton:wrapInArticulation = 1

        def BasisCurves "visual" (
            prepend apiSchemas = ["NewtonRodVisualCurveAPI"]
        )
        {
            uniform token[] curveType = ["linear"]
            int[] curveVertexCounts = [20]
            int[] newton:rodPointIndices = [0, 1, 2, 3, 4, 5, 6, 7, 8, 9, 10, 11, 12, 13, 14, 15, 16, 17, 18, 19]
            point3f[] points = [(-0.19, 0, 0.5), (-0.17, 0, 0.5), (-0.15, 0, 0.5), (-0.13, 0, 0.5), (-0.11, 0, 0.5), (-0.09, 0, 0.5), (-0.07, 0, 0.5), (-0.05, 0, 0.5), (-0.03, 0, 0.5), (-0.01, 0, 0.5), (0.01, 0, 0.5), (0.03, 0, 0.5), (0.05, 0, 0.5), (0.07, 0, 0.5), (0.09, 0, 0.5), (0.11, 0, 0.5), (0.13, 0, 0.5), (0.17, 0, 0.5), (0.19, 0, 0.5), (0.21, 0, 0.5)]
            uniform token type = "linear"
            float[] widths = [0.008, 0.008, 0.008, 0.008, 0.006, 0.006, 0.006, 0.004, 0.004, 0.004, 0.004, 0.004, 0.006, 0.006, 0.006, 0.008, 0.008, 0.008, 0.008, 0.008]
            uniform token wrap = "nonperiodic"
        }

        def Xform "attach_world_0" (
            prepend apiSchemas = ["NewtonRodAttachmentAPI"]
        )
        {
            int[] newton:nodeIndices = [0]
        }
    }

    def Scope "Looks"
    {
        def Material "CablePhysicsMaterial" (
            prepend apiSchemas = ["PhysicsMaterialAPI", "NewtonMaterialAPI"]
        )
        {
            float newton:contactDamping = 1
            float newton:contactStiffness = 100
            float physics:dynamicFriction = 0.5
            float physics:staticFriction = 0.5
        }
    }
}
