#usda 1.0
(
    doc = """AOUSD curve deformable asset: text "Newton"

    Generated by gen_text_rod.py from FreeType-rendered bitmaps.
    Pipeline: render -> threshold -> skeletonize -> simplify -> USD.

    Characters: 6  Curves: 12
    Total nodes: 296  Total edges: 292
    Curve diameter: 3.0mm"""
    defaultPrim = "World"
    metersPerUnit = 1
    upAxis = "Z"
)

def Xform "World"
{
    def Xform "text_rod"
    {
        def Xform "curve_0" (  # character 'N'
            prepend apiSchemas = ["MaterialBindingAPI"]
        )
        {
            rel material:binding = </World/Looks/CablePhysicsMaterial> (
                bindMaterialAs = "weakerThanDescendants"
            )
            def BasisCurves "strand_0" (
                prepend apiSchemas = ["PhysicsDeformableBodyAPI", "PhysicsCurvesDeformableSimAPI"]
            )
            {
                uniform token[] curveType = ["linear"]
                int[] curveVertexCounts = [57]
                uniform token type = "linear"
                uniform token wrap = "nonperiodic"
                float[] widths = [0.0030, 0.0030, 0.0030, 0.0030, 0.0030, 0.0030, 0.0030, 0.0030, 0.0030, 0.0030, 0.0030, 0.0030, 0.0030, 0.0030, 0.0030, 0.0030, 0.0030, 0.0030, 0.0030, 0.0030, 0.0030, 0.0030, 0.0030, 0.0030, 0.0030, 0.0030, 0.0030, 0.0030, 0.0030, 0.0030, 0.0030, 0.0030, 0.0030, 0.0030, 0.0030, 0.0030, 0.0030, 0.0030, 0.0030, 0.0030, 0.0030, 0.0030, 0.0030, 0.0030, 0.0030, 0.0030, 0.0030, 0.0030, 0.0030, 0.0030, 0.0030, 0.0030, 0.0030, 0.0030, 0.0030, 0.0030, 0.0030]
                point3f[] points = [(0.14125, 0.00000, 0.18875), (0.14000, 0.00000, 0.18375), (0.14000, 0.00000, 0.17750), (0.14000, 0.00000, 0.17125), (0.14000, 0.00000, 0.16500), (0.14000, 0.00000, 0.15875), (0.14000, 0.00000, 0.15250), (0.14000, 0.00000, 0.14625), (0.14000, 0.00000, 0.14125), (0.14000, 0.00000, 0.13500), (0.14000, 0.00000, 0.12875), (0.14000, 0.00000, 0.12250), (0.14000, 0.00000, 0.11625), (0.14000, 0.00000, 0.11000), (0.14000, 0.00000, 0.10375), (0.14000, 0.00000, 0.09750), (0.14000, 0.00000, 0.09250), (0.13594, 0.00000, 0.08625), (0.13000, 0.00000, 0.08875), (0.12500, 0.00000, 0.09125), (0.12000, 0.00000, 0.09375), (0.11500, 0.00000, 0.09625), (0.11000, 0.00000, 0.10000), (0.10750, 0.00000, 0.10500), (0.10500, 0.00000, 0.11000), (0.10250, 0.00000, 0.11500), (0.10000, 0.00000, 0.12000), (0.09625, 0.00000, 0.12500), (0.09375, 0.00000, 0.13000), (0.09125, 0.00000, 0.13500), (0.08875, 0.00000, 0.14000), (0.08625, 0.00000, 0.14500), (0.08375, 0.00000, 0.15000), (0.08125, 0.00000, 0.15500), (0.07875, 0.00000, 0.16000), (0.07500, 0.00000, 0.16500), (0.07125, 0.00000, 0.16875), (0.06625, 0.00000, 0.17125), (0.06000, 0.00000, 0.17500), (0.05500, 0.00000, 0.17625), (0.04875, 0.00000, 0.17906), (0.04500, 0.00000, 0.17375), (0.04500, 0.00000, 0.16750), (0.04500, 0.00000, 0.16000), (0.04500, 0.00000, 0.15375), (0.04500, 0.00000, 0.14750), (0.04500, 0.00000, 0.14125), (0.04500, 0.00000, 0.13500), (0.04500, 0.00000, 0.12875), (0.04500, 0.00000, 0.12250), (0.04500, 0.00000, 0.11500), (0.04500, 0.00000, 0.10875), (0.04500, 0.00000, 0.10250), (0.04500, 0.00000, 0.09625), (0.04500, 0.00000, 0.09000), (0.04500, 0.00000, 0.08375), (0.04375, 0.00000, 0.07750)]
            }
            def PhysicsAttachment "fixed_point_0"
            {
                rel physics:src0 = </World/text_rod/curve_0/strand_0>
                rel physics:src1 = </World>
                uniform token physics:type0 = "point"
                uniform token physics:type1 = "xform"
                int[] physics:indices0 = [0]
                int[] physics:indices1 = []
                vector3f[] physics:coords0 = []
                vector3f[] physics:coords1 = [(0.14125, 0.00000, 0.18875)]
                float physics:stiffness = inf
                float physics:damping = 0.0
            }
        }
        def Xform "curve_1" (  # character 'e'
            prepend apiSchemas = ["MaterialBindingAPI"]
        )
        {
            rel material:binding = </World/Looks/CablePhysicsMaterial> (
                bindMaterialAs = "weakerThanDescendants"
            )
            def BasisCurves "strand_0" (
                prepend apiSchemas = ["PhysicsDeformableBodyAPI", "PhysicsCurvesDeformableSimAPI"]
            )
            {
                uniform token[] curveType = ["linear"]
                int[] curveVertexCounts = [23]
                uniform token type = "linear"
                uniform token wrap = "nonperiodic"
                float[] widths = [0.0030, 0.0030, 0.0030, 0.0030, 0.0030, 0.0030, 0.0030, 0.0030, 0.0030, 0.0030, 0.0030, 0.0030, 0.0030, 0.0030, 0.0030, 0.0030, 0.0030, 0.0030, 0.0030, 0.0030, 0.0030, 0.0030, 0.0030]
                point3f[] points = [(0.31250, 0.00000, 0.12031), (0.31125, 0.00000, 0.12750), (0.31125, 0.00000, 0.13250), (0.30875, 0.00000, 0.13875), (0.30625, 0.00000, 0.14375), (0.30375, 0.00000, 0.14875), (0.29875, 0.00000, 0.15375), (0.29500, 0.00000, 0.15625), (0.28875, 0.00000, 0.15875), (0.28375, 0.00000, 0.16000), (0.27750, 0.00000, 0.16000), (0.27250, 0.00000, 0.16000), (0.26625, 0.00000, 0.16000), (0.26000, 0.00000, 0.15875), (0.25500, 0.00000, 0.15625), (0.25000, 0.00000, 0.15250), (0.24500, 0.00000, 0.14875), (0.24250, 0.00000, 0.14500), (0.23875, 0.00000, 0.13875), (0.23750, 0.00000, 0.13375), (0.23625, 0.00000, 0.12875), (0.23500, 0.00000, 0.12250), (0.23475, 0.00000, 0.11500)]
            }
            def BasisCurves "strand_1" (
                prepend apiSchemas = ["PhysicsDeformableBodyAPI", "PhysicsCurvesDeformableSimAPI"]
            )
            {
                uniform token[] curveType = ["linear"]
                int[] curveVertexCounts = [13]
                uniform token type = "linear"
                uniform token wrap = "nonperiodic"
                float[] widths = [0.0030, 0.0030, 0.0030, 0.0030, 0.0030, 0.0030, 0.0030, 0.0030, 0.0030, 0.0030, 0.0030, 0.0030, 0.0030]
                point3f[] points = [(0.31250, 0.00000, 0.12031), (0.30625, 0.00000, 0.11500), (0.30000, 0.00000, 0.11500), (0.29375, 0.00000, 0.11500), (0.28750, 0.00000, 0.11500), (0.28125, 0.00000, 0.11500), (0.27500, 0.00000, 0.11500), (0.26875, 0.00000, 0.11500), (0.26250, 0.00000, 0.11500), (0.25500, 0.00000, 0.11500), (0.24875, 0.00000, 0.11500), (0.24250, 0.00000, 0.11500), (0.23475, 0.00000, 0.11500)]
            }
            def BasisCurves "strand_2" (
                prepend apiSchemas = ["PhysicsDeformableBodyAPI", "PhysicsCurvesDeformableSimAPI"]
            )
            {
                uniform token[] curveType = ["linear"]
                int[] curveVertexCounts = [3]
                uniform token type = "linear"
                uniform token wrap = "nonperiodic"
                float[] widths = [0.0030, 0.0030, 0.0030]
                point3f[] points = [(0.31250, 0.00000, 0.12031), (0.31750, 0.00000, 0.11750), (0.32250, 0.00000, 0.11500)]
            }
            def BasisCurves "strand_3" (
                prepend apiSchemas = ["PhysicsDeformableBodyAPI", "PhysicsCurvesDeformableSimAPI"]
            )
            {
                uniform token[] curveType = ["linear"]
                int[] curveVertexCounts = [23]
                uniform token type = "linear"
                uniform token wrap = "nonperiodic"
                float[] widths = [0.0030, 0.0030, 0.0030, 0.0030, 0.0030, 0.0030, 0.0030, 0.0030, 0.0030, 0.0030, 0.0030, 0.0030, 0.0030, 0.0030, 0.0030, 0.0030, 0.0030, 0.0030, 0.0030, 0.0030, 0.0030, 0.0030, 0.0030]
                point3f[] points = [(0.23475, 0.00000, 0.11500), (0.23500, 0.00000, 0.10750), (0.23625, 0.00000, 0.10250), (0.23750, 0.00000, 0.09625), (0.23875, 0.00000, 0.09000), (0.24125, 0.00000, 0.08500), (0.24500, 0.00000, 0.08000), (0.25000, 0.00000, 0.07625), (0.25500, 0.00000, 0.07250), (0.26000, 0.00000, 0.07125), (0.26625, 0.00000, 0.07000), (0.27125, 0.00000, 0.06875), (0.27875, 0.00000, 0.06875), (0.28500, 0.00000, 0.06875), (0.29125, 0.00000, 0.06875), (0.29625, 0.00000, 0.07000), (0.30250, 0.00000, 0.07125), (0.30875, 0.00000, 0.07250), (0.31375, 0.00000, 0.07375), (0.31875, 0.00000, 0.07625), (0.32250, 0.00000, 0.08250), (0.32500, 0.00000, 0.08750), (0.32750, 0.00000, 0.09250)]
            }
            def PhysicsAttachment "junction_0_1"
            {
                rel physics:src0 = </World/text_rod/curve_1/strand_1>
                rel physics:src1 = </World/text_rod/curve_1/strand_0>
                uniform token physics:type0 = "point"
                uniform token physics:type1 = "point"
                int[] physics:indices0 = [0]
                int[] physics:indices1 = [0]
                vector3f[] physics:coords0 = []
                vector3f[] physics:coords1 = []
                float physics:stiffness = inf
                float physics:damping = 0.0
            }
            def PhysicsAttachment "junction_0_2"
            {
                rel physics:src0 = </World/text_rod/curve_1/strand_2>
                rel physics:src1 = </World/text_rod/curve_1/strand_0>
                uniform token physics:type0 = "point"
                uniform token physics:type1 = "point"
                int[] physics:indices0 = [0]
                int[] physics:indices1 = [0]
                vector3f[] physics:coords0 = []
                vector3f[] physics:coords1 = []
                float physics:stiffness = inf
                float physics:damping = 0.0
            }
            def PhysicsAttachment "junction_2_1"
            {
                rel physics:src0 = </World/text_rod/curve_1/strand_1>
                rel physics:src1 = </World/text_rod/curve_1/strand_0>
                uniform token physics:type0 = "point"
                uniform token physics:type1 = "point"
                int[] physics:indices0 = [12]
                int[] physics:indices1 = [22]
                vector3f[] physics:coords0 = []
                vector3f[] physics:coords1 = []
                float physics:stiffness = inf
                float physics:damping = 0.0
            }
            def PhysicsAttachment "junction_2_2"
            {
                rel physics:src0 = </World/text_rod/curve_1/strand_3>
                rel physics:src1 = </World/text_rod/curve_1/strand_0>
                uniform token physics:type0 = "point"
                uniform token physics:type1 = "point"
                int[] physics:indices0 = [0]
                int[] physics:indices1 = [22]
                vector3f[] physics:coords0 = []
                vector3f[] physics:coords1 = []
                float physics:stiffness = inf
                float physics:damping = 0.0
            }
            def PhysicsAttachment "fixed_point_12"
            {
                rel physics:src0 = </World/text_rod/curve_1/strand_0>
                rel physics:src1 = </World>
                uniform token physics:type0 = "point"
                uniform token physics:type1 = "xform"
                int[] physics:indices0 = [9]
                int[] physics:indices1 = []
                vector3f[] physics:coords0 = []
                vector3f[] physics:coords1 = [(0.28375, 0.00000, 0.16000)]
                float physics:stiffness = inf
                float physics:damping = 0.0
            }
        }
        def Xform "curve_2" (  # character 'w'
            prepend apiSchemas = ["MaterialBindingAPI"]
        )
        {
            rel material:binding = </World/Looks/CablePhysicsMaterial> (
                bindMaterialAs = "weakerThanDescendants"
            )
            def BasisCurves "strand_0" (
                prepend apiSchemas = ["PhysicsDeformableBodyAPI", "PhysicsCurvesDeformableSimAPI"]
            )
            {
                uniform token[] curveType = ["linear"]
                int[] curveVertexCounts = [65]
                uniform token type = "linear"
                uniform token wrap = "nonperiodic"
                float[] widths = [0.0030, 0.0030, 0.0030, 0.0030, 0.0030, 0.0030, 0.0030, 0.0030, 0.0030, 0.0030, 0.0030, 0.0030, 0.0030, 0.0030, 0.0030, 0.0030, 0.0030, 0.0030, 0.0030, 0.0030, 0.0030, 0.0030, 0.0030, 0.0030, 0.0030, 0.0030, 0.0030, 0.0030, 0.0030, 0.0030, 0.0030, 0.0030, 0.0030, 0.0030, 0.0030, 0.0030, 0.0030, 0.0030, 0.0030, 0.0030, 0.0030, 0.0030, 0.0030, 0.0030, 0.0030, 0.0030, 0.0030, 0.0030, 0.0030, 0.0030, 0.0030, 0.0030, 0.0030, 0.0030, 0.0030, 0.0030, 0.0030, 0.0030, 0.0030, 0.0030, 0.0030, 0.0030, 0.0030, 0.0030, 0.0030]
                point3f[] points = [(0.38375, 0.00000, 0.16750), (0.38875, 0.00000, 0.16375), (0.39375, 0.00000, 0.16000), (0.39875, 0.00000, 0.15750), (0.40125, 0.00000, 0.15250), (0.40250, 0.00000, 0.14625), (0.40375, 0.00000, 0.14125), (0.40500, 0.00000, 0.13500), (0.40750, 0.00000, 0.13000), (0.40875, 0.00000, 0.12375), (0.41000, 0.00000, 0.11875), (0.41125, 0.00000, 0.11250), (0.41250, 0.00000, 0.10750), (0.41500, 0.00000, 0.10125), (0.41625, 0.00000, 0.09625), (0.41750, 0.00000, 0.09000), (0.41875, 0.00000, 0.08500), (0.42250, 0.00000, 0.08000), (0.42750, 0.00000, 0.07750), (0.43250, 0.00000, 0.08000), (0.43750, 0.00000, 0.08375), (0.44250, 0.00000, 0.08750), (0.44375, 0.00000, 0.09375), (0.44500, 0.00000, 0.09875), (0.44625, 0.00000, 0.10500), (0.44750, 0.00000, 0.11000), (0.45000, 0.00000, 0.11625), (0.45125, 0.00000, 0.12125), (0.45250, 0.00000, 0.12750), (0.45375, 0.00000, 0.13250), (0.45500, 0.00000, 0.13875), (0.45875, 0.00000, 0.14250), (0.46500, 0.00000, 0.14656), (0.47125, 0.00000, 0.14375), (0.47625, 0.00000, 0.14000), (0.47750, 0.00000, 0.13375), (0.47875, 0.00000, 0.12875), (0.48000, 0.00000, 0.12250), (0.48125, 0.00000, 0.11750), (0.48250, 0.00000, 0.11125), (0.48375, 0.00000, 0.10500), (0.48500, 0.00000, 0.10000), (0.48750, 0.00000, 0.09375), (0.48875, 0.00000, 0.08875), (0.49250, 0.00000, 0.08500), (0.49750, 0.00000, 0.08125), (0.50250, 0.00000, 0.07875), (0.50875, 0.00000, 0.08125), (0.51250, 0.00000, 0.08500), (0.51375, 0.00000, 0.09125), (0.51500, 0.00000, 0.09750), (0.51625, 0.00000, 0.10250), (0.51875, 0.00000, 0.10875), (0.52000, 0.00000, 0.11375), (0.52125, 0.00000, 0.12000), (0.52250, 0.00000, 0.12500), (0.52375, 0.00000, 0.13125), (0.52500, 0.00000, 0.13750), (0.52625, 0.00000, 0.14250), (0.52750, 0.00000, 0.14875), (0.52875, 0.00000, 0.15375), (0.53375, 0.00000, 0.15875), (0.53875, 0.00000, 0.16125), (0.54375, 0.00000, 0.16500), (0.54875, 0.00000, 0.16750)]
            }
            def PhysicsAttachment "fixed_point_0"
            {
                rel physics:src0 = </World/text_rod/curve_2/strand_0>
                rel physics:src1 = </World>
                uniform token physics:type0 = "point"
                uniform token physics:type1 = "xform"
                int[] physics:indices0 = [0]
                int[] physics:indices1 = []
                vector3f[] physics:coords0 = []
                vector3f[] physics:coords1 = [(0.38375, 0.00000, 0.16750)]
                float physics:stiffness = inf
                float physics:damping = 0.0
            }
        }
        def Xform "curve_3" (  # character 't'
            prepend apiSchemas = ["MaterialBindingAPI"]
        )
        {
            rel material:binding = </World/Looks/CablePhysicsMaterial> (
                bindMaterialAs = "weakerThanDescendants"
            )
            def BasisCurves "strand_0" (
                prepend apiSchemas = ["PhysicsDeformableBodyAPI", "PhysicsCurvesDeformableSimAPI"]
            )
            {
                uniform token[] curveType = ["linear"]
                int[] curveVertexCounts = [5]
                uniform token type = "linear"
                uniform token wrap = "nonperiodic"
                float[] widths = [0.0030, 0.0030, 0.0030, 0.0030, 0.0030]
                point3f[] points = [(0.62625, 0.00000, 0.18250), (0.62500, 0.00000, 0.17750), (0.62500, 0.00000, 0.17125), (0.62500, 0.00000, 0.16500), (0.62500, 0.00000, 0.15750)]
            }
            def BasisCurves "strand_1" (
                prepend apiSchemas = ["PhysicsDeformableBodyAPI", "PhysicsCurvesDeformableSimAPI"]
            )
            {
                uniform token[] curveType = ["linear"]
                int[] curveVertexCounts = [8]
                uniform token type = "linear"
                uniform token wrap = "nonperiodic"
                float[] widths = [0.0030, 0.0030, 0.0030, 0.0030, 0.0030, 0.0030, 0.0030, 0.0030]
                point3f[] points = [(0.66750, 0.00000, 0.15750), (0.66125, 0.00000, 0.15750), (0.65625, 0.00000, 0.15750), (0.65000, 0.00000, 0.15750), (0.64375, 0.00000, 0.15750), (0.63750, 0.00000, 0.15750), (0.63250, 0.00000, 0.15750), (0.62500, 0.00000, 0.15750)]
            }
            def BasisCurves "strand_2" (
                prepend apiSchemas = ["PhysicsDeformableBodyAPI", "PhysicsCurvesDeformableSimAPI"]
            )
            {
                uniform token[] curveType = ["linear"]
                int[] curveVertexCounts = [5]
                uniform token type = "linear"
                uniform token wrap = "nonperiodic"
                float[] widths = [0.0030, 0.0030, 0.0030, 0.0030, 0.0030]
                point3f[] points = [(0.60125, 0.00000, 0.15625), (0.60625, 0.00000, 0.15750), (0.61250, 0.00000, 0.15750), (0.61750, 0.00000, 0.15750), (0.62500, 0.00000, 0.15750)]
            }
            def BasisCurves "strand_3" (
                prepend apiSchemas = ["PhysicsDeformableBodyAPI", "PhysicsCurvesDeformableSimAPI"]
            )
            {
                uniform token[] curveType = ["linear"]
                int[] curveVertexCounts = [20]
                uniform token type = "linear"
                uniform token wrap = "nonperiodic"
                float[] widths = [0.0030, 0.0030, 0.0030, 0.0030, 0.0030, 0.0030, 0.0030, 0.0030, 0.0030, 0.0030, 0.0030, 0.0030, 0.0030, 0.0030, 0.0030, 0.0030, 0.0030, 0.0030, 0.0030, 0.0030]
                point3f[] points = [(0.62500, 0.00000, 0.15750), (0.62500, 0.00000, 0.15000), (0.62500, 0.00000, 0.14375), (0.62500, 0.00000, 0.13750), (0.62500, 0.00000, 0.13125), (0.62500, 0.00000, 0.12500), (0.62500, 0.00000, 0.12000), (0.62500, 0.00000, 0.11375), (0.62500, 0.00000, 0.10750), (0.62625, 0.00000, 0.10125), (0.62625, 0.00000, 0.09500), (0.62750, 0.00000, 0.09000), (0.62875, 0.00000, 0.08375), (0.63125, 0.00000, 0.07875), (0.63500, 0.00000, 0.07500), (0.64125, 0.00000, 0.07250), (0.64625, 0.00000, 0.07250), (0.65250, 0.00000, 0.07250), (0.65875, 0.00000, 0.07250), (0.66500, 0.00000, 0.07250)]
            }
            def PhysicsAttachment "junction_3_1"
            {
                rel physics:src0 = </World/text_rod/curve_3/strand_1>
                rel physics:src1 = </World/text_rod/curve_3/strand_0>
                uniform token physics:type0 = "point"
                uniform token physics:type1 = "point"
                int[] physics:indices0 = [7]
                int[] physics:indices1 = [4]
                vector3f[] physics:coords0 = []
                vector3f[] physics:coords1 = []
                float physics:stiffness = inf
                float physics:damping = 0.0
            }
            def PhysicsAttachment "junction_3_2"
            {
                rel physics:src0 = </World/text_rod/curve_3/strand_2>
                rel physics:src1 = </World/text_rod/curve_3/strand_0>
                uniform token physics:type0 = "point"
                uniform token physics:type1 = "point"
                int[] physics:indices0 = [4]
                int[] physics:indices1 = [4]
                vector3f[] physics:coords0 = []
                vector3f[] physics:coords1 = []
                float physics:stiffness = inf
                float physics:damping = 0.0
            }
            def PhysicsAttachment "junction_3_3"
            {
                rel physics:src0 = </World/text_rod/curve_3/strand_3>
                rel physics:src1 = </World/text_rod/curve_3/strand_0>
                uniform token physics:type0 = "point"
                uniform token physics:type1 = "point"
                int[] physics:indices0 = [0]
                int[] physics:indices1 = [4]
                vector3f[] physics:coords0 = []
                vector3f[] physics:coords1 = []
                float physics:stiffness = inf
                float physics:damping = 0.0
            }
            def PhysicsAttachment "fixed_point_0"
            {
                rel physics:src0 = </World/text_rod/curve_3/strand_0>
                rel physics:src1 = </World>
                uniform token physics:type0 = "point"
                uniform token physics:type1 = "xform"
                int[] physics:indices0 = [0]
                int[] physics:indices1 = []
                vector3f[] physics:coords0 = []
                vector3f[] physics:coords1 = [(0.62625, 0.00000, 0.18250)]
                float physics:stiffness = inf
                float physics:damping = 0.0
            }
        }
        def Xform "curve_4" (  # character 'o'
            prepend apiSchemas = ["MaterialBindingAPI"]
        )
        {
            rel material:binding = </World/Looks/CablePhysicsMaterial> (
                bindMaterialAs = "weakerThanDescendants"
            )
            def BasisCurves "strand_0" (
                prepend apiSchemas = ["PhysicsDeformableBodyAPI", "PhysicsCurvesDeformableSimAPI"]
            )
            {
                uniform token[] curveType = ["linear"]
                int[] curveVertexCounts = [46]
                uniform token type = "linear"
                uniform token wrap = "periodic"
                float[] widths = [0.0030, 0.0030, 0.0030, 0.0030, 0.0030, 0.0030, 0.0030, 0.0030, 0.0030, 0.0030, 0.0030, 0.0030, 0.0030, 0.0030, 0.0030, 0.0030, 0.0030, 0.0030, 0.0030, 0.0030, 0.0030, 0.0030, 0.0030, 0.0030, 0.0030, 0.0030, 0.0030, 0.0030, 0.0030, 0.0030, 0.0030, 0.0030, 0.0030, 0.0030, 0.0030, 0.0030, 0.0030, 0.0030, 0.0030, 0.0030, 0.0030, 0.0030, 0.0030, 0.0030, 0.0030, 0.0030]
                point3f[] points = [(0.78250, 0.00000, 0.16000), (0.79125, 0.00000, 0.15875), (0.79625, 0.00000, 0.15750), (0.80250, 0.00000, 0.15500), (0.80750, 0.00000, 0.15250), (0.81125, 0.00000, 0.14875), (0.81500, 0.00000, 0.14375), (0.81750, 0.00000, 0.13875), (0.82000, 0.00000, 0.13250), (0.82125, 0.00000, 0.12750), (0.82125, 0.00000, 0.12125), (0.82250, 0.00000, 0.11500), (0.82250, 0.00000, 0.10875), (0.82125, 0.00000, 0.10250), (0.82000, 0.00000, 0.09750), (0.81750, 0.00000, 0.09125), (0.81500, 0.00000, 0.08625), (0.81250, 0.00000, 0.08125), (0.80750, 0.00000, 0.07625), (0.80250, 0.00000, 0.07375), (0.79750, 0.00000, 0.07250), (0.79125, 0.00000, 0.07125), (0.78500, 0.00000, 0.07000), (0.77875, 0.00000, 0.07000), (0.77250, 0.00000, 0.07125), (0.76750, 0.00000, 0.07125), (0.76125, 0.00000, 0.07375), (0.75625, 0.00000, 0.07625), (0.75125, 0.00000, 0.08125), (0.74875, 0.00000, 0.08500), (0.74625, 0.00000, 0.09125), (0.74375, 0.00000, 0.09625), (0.74250, 0.00000, 0.10125), (0.74125, 0.00000, 0.10750), (0.74000, 0.00000, 0.11375), (0.74125, 0.00000, 0.11875), (0.74250, 0.00000, 0.12500), (0.74375, 0.00000, 0.13125), (0.74500, 0.00000, 0.13625), (0.74750, 0.00000, 0.14250), (0.75125, 0.00000, 0.14750), (0.75500, 0.00000, 0.15125), (0.76000, 0.00000, 0.15500), (0.76625, 0.00000, 0.15750), (0.77125, 0.00000, 0.15875), (0.77750, 0.00000, 0.15875)]
            }
            def PhysicsAttachment "fixed_point_0"
            {
                rel physics:src0 = </World/text_rod/curve_4/strand_0>
                rel physics:src1 = </World>
                uniform token physics:type0 = "point"
                uniform token physics:type1 = "xform"
                int[] physics:indices0 = [0]
                int[] physics:indices1 = []
                vector3f[] physics:coords0 = []
                vector3f[] physics:coords1 = [(0.78250, 0.00000, 0.16000)]
                float physics:stiffness = inf
                float physics:damping = 0.0
            }
        }
        def Xform "curve_5" (  # character 'n'
            prepend apiSchemas = ["MaterialBindingAPI"]
        )
        {
            rel material:binding = </World/Looks/CablePhysicsMaterial> (
                bindMaterialAs = "weakerThanDescendants"
            )
            def BasisCurves "strand_0" (
                prepend apiSchemas = ["PhysicsDeformableBodyAPI", "PhysicsCurvesDeformableSimAPI"]
            )
            {
                uniform token[] curveType = ["linear"]
                int[] curveVertexCounts = [35]
                uniform token type = "linear"
                uniform token wrap = "nonperiodic"
                float[] widths = [0.0030, 0.0030, 0.0030, 0.0030, 0.0030, 0.0030, 0.0030, 0.0030, 0.0030, 0.0030, 0.0030, 0.0030, 0.0030, 0.0030, 0.0030, 0.0030, 0.0030, 0.0030, 0.0030, 0.0030, 0.0030, 0.0030, 0.0030, 0.0030, 0.0030, 0.0030, 0.0030, 0.0030, 0.0030, 0.0030, 0.0030, 0.0030, 0.0030, 0.0030, 0.0030]
                point3f[] points = [(0.91375, 0.00000, 0.07750), (0.91500, 0.00000, 0.08375), (0.91500, 0.00000, 0.09000), (0.91500, 0.00000, 0.09625), (0.91500, 0.00000, 0.10250), (0.91500, 0.00000, 0.10875), (0.91500, 0.00000, 0.11500), (0.91500, 0.00000, 0.12250), (0.91500, 0.00000, 0.12875), (0.91500, 0.00000, 0.13500), (0.91531, 0.00000, 0.14250), (0.92250, 0.00000, 0.14375), (0.92750, 0.00000, 0.14625), (0.93375, 0.00000, 0.14750), (0.93875, 0.00000, 0.15000), (0.94375, 0.00000, 0.15125), (0.95000, 0.00000, 0.15375), (0.95500, 0.00000, 0.15625), (0.96125, 0.00000, 0.15750), (0.96750, 0.00000, 0.15750), (0.97250, 0.00000, 0.15750), (0.97750, 0.00000, 0.15500), (0.98250, 0.00000, 0.15000), (0.98500, 0.00000, 0.14500), (0.98625, 0.00000, 0.13875), (0.98750, 0.00000, 0.13375), (0.98875, 0.00000, 0.12750), (0.98875, 0.00000, 0.12125), (0.98875, 0.00000, 0.11500), (0.99000, 0.00000, 0.10875), (0.99000, 0.00000, 0.10250), (0.99000, 0.00000, 0.09625), (0.99000, 0.00000, 0.09000), (0.99000, 0.00000, 0.08375), (0.98875, 0.00000, 0.07750)]
            }
            def PhysicsAttachment "fixed_point_10"
            {
                rel physics:src0 = </World/text_rod/curve_5/strand_0>
                rel physics:src1 = </World>
                uniform token physics:type0 = "point"
                uniform token physics:type1 = "xform"
                int[] physics:indices0 = [18]
                int[] physics:indices1 = []
                vector3f[] physics:coords0 = []
                vector3f[] physics:coords1 = [(0.96125, 0.00000, 0.15750)]
                float physics:stiffness = inf
                float physics:damping = 0.0
            }
        }
    }

    def Scope "Looks"
    {
        def Material "CablePhysicsMaterial" (
            prepend apiSchemas = ["PhysicsMaterialAPI", "PhysicsCurvesDeformableMaterialAPI", "NewtonMaterialAPI", "NewtonCurvesDeformableMaterialAPI"]
        )
        {
            float physics:thickness = 0.003
            float physics:stretchStiffness = 1000.44
            float physics:bendStiffness = 0.824
            float newton:stretchDamping = 1e-05
            float newton:bendDamping = 10.0
            float physics:dynamicFriction = 0.5
            float physics:staticFriction = 0.5
            float newton:contactStiffness = 100.0
            float newton:contactDamping = 1.0
        }
    }
}
