#usda 1.0
(
    doc = """Rod graph asset: text "Lightwheel"

    Generated by gen_text_rod.py from FreeType-rendered bitmaps.
    Pipeline: render → threshold → skeletonize → simplify → USD.

    Characters: 10  Curves: 10
    Total nodes: 417  Total edges: 410
    Rod diameter: 3.0mm"""
    defaultPrim = "World"
    metersPerUnit = 1
    upAxis = "Z"
)

def Xform "World"
{
    def Xform "text_rod"
    {
        def Xform "curve_0" (  # character 'L'
            prepend apiSchemas = ["NewtonRodAPI", "MaterialBindingAPI"]
        )
        {
            rel material:binding = </World/Looks/CablePhysicsMaterial> (
                bindMaterialAs = "weakerThanDescendants"
            )
            point3f[] newton:points = [(0.04750, 0.00000, 0.18750), (0.11875, 0.00000, 0.07375), (0.04625, 0.00000, 0.18125), (0.04625, 0.00000, 0.17500), (0.04625, 0.00000, 0.16875), (0.04625, 0.00000, 0.16250), (0.04625, 0.00000, 0.15625), (0.04625, 0.00000, 0.15000), (0.04625, 0.00000, 0.14375), (0.04625, 0.00000, 0.13750), (0.04625, 0.00000, 0.13125), (0.04625, 0.00000, 0.12500), (0.04625, 0.00000, 0.11875), (0.04625, 0.00000, 0.11250), (0.04625, 0.00000, 0.10500), (0.04625, 0.00000, 0.09875), (0.04625, 0.00000, 0.09250), (0.04625, 0.00000, 0.08625), (0.04625, 0.00000, 0.08000), (0.05000, 0.00000, 0.07500), (0.05500, 0.00000, 0.07375), (0.06125, 0.00000, 0.07375), (0.06750, 0.00000, 0.07375), (0.07500, 0.00000, 0.07375), (0.08125, 0.00000, 0.07375), (0.08750, 0.00000, 0.07375), (0.09375, 0.00000, 0.07375), (0.10000, 0.00000, 0.07375), (0.10625, 0.00000, 0.07375), (0.11250, 0.00000, 0.07375)]
            float[] newton:radius = [0.00150]
            float newton:contact_ke = 100.0
            float newton:contact_kd = 1.0

            int2[] newton:edges = [(3, 4), (26, 27), (16, 17), (21, 22), (12, 13), (22, 23), (0, 2), (8, 9), (17, 18), (27, 28), (13, 14), (18, 19), (4, 5), (5, 6), (23, 24), (14, 15), (9, 10), (10, 11), (19, 20), (28, 29), (6, 7), (15, 16), (24, 25), (1, 29), (20, 21), (2, 3), (11, 12), (7, 8), (25, 26)]

            float[] newton:stretchStiffness = [1000.44]
            float[] newton:stretchDamping = [1e-05]
            float[] newton:bendStiffness = [0.824]
            float[] newton:bendDamping = [10.0]

            bool newton:wrapInArticulation = true

            def BasisCurves "visual_0" (
                prepend apiSchemas = ["NewtonRodVisualCurveAPI"]
            ) {
                uniform token[] curveType = ["linear"]
                int[] curveVertexCounts = [30]
                int[] newton:rodPointIndices = [0, 2, 3, 4, 5, 6, 7, 8, 9, 10, 11, 12, 13, 14, 15, 16, 17, 18, 19, 20, 21, 22, 23, 24, 25, 26, 27, 28, 29, 1]
                uniform token type = "linear"
                uniform token wrap = "nonperiodic"
                float[] widths = [0.0030, 0.0030, 0.0030, 0.0030, 0.0030, 0.0030, 0.0030, 0.0030, 0.0030, 0.0030, 0.0030, 0.0030, 0.0030, 0.0030, 0.0030, 0.0030, 0.0030, 0.0030, 0.0030, 0.0030, 0.0030, 0.0030, 0.0030, 0.0030, 0.0030, 0.0030, 0.0030, 0.0030, 0.0030, 0.0030]
                point3f[] points = [(0.04750, 0.00000, 0.18750), (0.04625, 0.00000, 0.18125), (0.04625, 0.00000, 0.17500), (0.04625, 0.00000, 0.16875), (0.04625, 0.00000, 0.16250), (0.04625, 0.00000, 0.15625), (0.04625, 0.00000, 0.15000), (0.04625, 0.00000, 0.14375), (0.04625, 0.00000, 0.13750), (0.04625, 0.00000, 0.13125), (0.04625, 0.00000, 0.12500), (0.04625, 0.00000, 0.11875), (0.04625, 0.00000, 0.11250), (0.04625, 0.00000, 0.10500), (0.04625, 0.00000, 0.09875), (0.04625, 0.00000, 0.09250), (0.04625, 0.00000, 0.08625), (0.04625, 0.00000, 0.08000), (0.05000, 0.00000, 0.07500), (0.05500, 0.00000, 0.07375), (0.06125, 0.00000, 0.07375), (0.06750, 0.00000, 0.07375), (0.07500, 0.00000, 0.07375), (0.08125, 0.00000, 0.07375), (0.08750, 0.00000, 0.07375), (0.09375, 0.00000, 0.07375), (0.10000, 0.00000, 0.07375), (0.10625, 0.00000, 0.07375), (0.11250, 0.00000, 0.07375), (0.11875, 0.00000, 0.07375)]
            }

            def Xform "attach_world_0" (
                prepend apiSchemas = ["NewtonRodAttachmentAPI"]
            ) {
                int[] newton:nodeIndices = [0]
            }
        }
        def Xform "curve_1" (  # character 'i'
            prepend apiSchemas = ["NewtonRodAPI", "MaterialBindingAPI"]
        )
        {
            rel material:binding = </World/Looks/CablePhysicsMaterial> (
                bindMaterialAs = "weakerThanDescendants"
            )
            point3f[] newton:points = [(0.20250, 0.00000, 0.15250), (0.20000, 0.00000, 0.07750), (0.20125, 0.00000, 0.14625), (0.20125, 0.00000, 0.14000), (0.20125, 0.00000, 0.13375), (0.20125, 0.00000, 0.12750), (0.20125, 0.00000, 0.12125), (0.20125, 0.00000, 0.11500), (0.20125, 0.00000, 0.10875), (0.20125, 0.00000, 0.10250), (0.20125, 0.00000, 0.09625), (0.20125, 0.00000, 0.09000), (0.20125, 0.00000, 0.08375)]
            float[] newton:radius = [0.00150]
            float newton:contact_ke = 100.0
            float newton:contact_kd = 1.0

            int2[] newton:edges = [(6, 7), (10, 11), (7, 8), (9, 10), (11, 12), (8, 9), (3, 4), (5, 6), (2, 3), (0, 2), (1, 12), (4, 5)]

            float[] newton:stretchStiffness = [1000.44]
            float[] newton:stretchDamping = [1e-05]
            float[] newton:bendStiffness = [0.824]
            float[] newton:bendDamping = [10.0]

            bool newton:wrapInArticulation = true

            def BasisCurves "visual_0" (
                prepend apiSchemas = ["NewtonRodVisualCurveAPI"]
            ) {
                uniform token[] curveType = ["linear"]
                int[] curveVertexCounts = [13]
                int[] newton:rodPointIndices = [0, 2, 3, 4, 5, 6, 7, 8, 9, 10, 11, 12, 1]
                uniform token type = "linear"
                uniform token wrap = "nonperiodic"
                float[] widths = [0.0030, 0.0030, 0.0030, 0.0030, 0.0030, 0.0030, 0.0030, 0.0030, 0.0030, 0.0030, 0.0030, 0.0030, 0.0030]
                point3f[] points = [(0.20250, 0.00000, 0.15250), (0.20125, 0.00000, 0.14625), (0.20125, 0.00000, 0.14000), (0.20125, 0.00000, 0.13375), (0.20125, 0.00000, 0.12750), (0.20125, 0.00000, 0.12125), (0.20125, 0.00000, 0.11500), (0.20125, 0.00000, 0.10875), (0.20125, 0.00000, 0.10250), (0.20125, 0.00000, 0.09625), (0.20125, 0.00000, 0.09000), (0.20125, 0.00000, 0.08375), (0.20000, 0.00000, 0.07750)]
            }

            def Xform "attach_world_0" (
                prepend apiSchemas = ["NewtonRodAttachmentAPI"]
            ) {
                int[] newton:nodeIndices = [0]
            }
        }
        def Xform "curve_2" (  # character 'g'
            prepend apiSchemas = ["NewtonRodAPI", "MaterialBindingAPI"]
        )
        {
            rel material:binding = </World/Looks/CablePhysicsMaterial> (
                bindMaterialAs = "weakerThanDescendants"
            )
            point3f[] newton:points = [(0.37344, 0.00000, 0.14250), (0.37344, 0.00000, 0.08875), (0.35500, 0.00000, 0.05125), (0.36625, 0.00000, 0.14250), (0.36125, 0.00000, 0.14500), (0.35500, 0.00000, 0.14750), (0.35000, 0.00000, 0.15000), (0.34500, 0.00000, 0.15250), (0.34000, 0.00000, 0.15500), (0.33375, 0.00000, 0.15625), (0.32875, 0.00000, 0.15750), (0.32250, 0.00000, 0.15875), (0.31625, 0.00000, 0.15750), (0.31125, 0.00000, 0.15500), (0.30625, 0.00000, 0.15125), (0.30250, 0.00000, 0.14750), (0.29875, 0.00000, 0.14125), (0.29750, 0.00000, 0.13625), (0.29500, 0.00000, 0.13125), (0.29375, 0.00000, 0.12500), (0.29375, 0.00000, 0.11875), (0.29375, 0.00000, 0.11250), (0.29500, 0.00000, 0.10625), (0.29500, 0.00000, 0.10000), (0.29750, 0.00000, 0.09500), (0.29875, 0.00000, 0.09000), (0.30250, 0.00000, 0.08375), (0.30625, 0.00000, 0.08000), (0.31125, 0.00000, 0.07625), (0.31625, 0.00000, 0.07375), (0.32250, 0.00000, 0.07250), (0.32875, 0.00000, 0.07375), (0.33375, 0.00000, 0.07500), (0.34000, 0.00000, 0.07625), (0.34500, 0.00000, 0.07875), (0.35000, 0.00000, 0.08125), (0.35625, 0.00000, 0.08375), (0.36125, 0.00000, 0.08500), (0.36625, 0.00000, 0.08750), (0.37375, 0.00000, 0.13500), (0.37375, 0.00000, 0.12875), (0.37375, 0.00000, 0.12250), (0.37375, 0.00000, 0.11625), (0.37375, 0.00000, 0.10875), (0.37375, 0.00000, 0.10250), (0.37375, 0.00000, 0.09625), (0.37375, 0.00000, 0.08125), (0.37375, 0.00000, 0.07500), (0.37375, 0.00000, 0.06875), (0.37000, 0.00000, 0.06375), (0.36500, 0.00000, 0.05875), (0.36000, 0.00000, 0.05500)]
            float[] newton:radius = [0.00150]
            float newton:contact_ke = 100.0
            float newton:contact_kd = 1.0

            int2[] newton:edges = [(3, 4), (0, 39), (44, 45), (26, 27), (16, 17), (35, 36), (12, 13), (21, 22), (1, 46), (22, 23), (31, 32), (8, 9), (2, 51), (40, 41), (49, 50), (17, 18), (36, 37), (27, 28), (13, 14), (32, 33), (41, 42), (50, 51), (18, 19), (4, 5), (5, 6), (1, 45), (46, 47), (14, 15), (23, 24), (9, 10), (10, 11), (37, 38), (19, 20), (28, 29), (15, 16), (24, 25), (6, 7), (47, 48), (42, 43), (33, 34), (43, 44), (1, 38), (29, 30), (20, 21), (48, 49), (39, 40), (0, 3), (34, 35), (11, 12), (7, 8), (30, 31), (25, 26)]

            float[] newton:stretchStiffness = [1000.44]
            float[] newton:stretchDamping = [1e-05]
            float[] newton:bendStiffness = [0.824]
            float[] newton:bendDamping = [10.0]

            bool newton:wrapInArticulation = true

            def BasisCurves "visual_0" (
                prepend apiSchemas = ["NewtonRodVisualCurveAPI"]
            ) {
                uniform token[] curveType = ["linear"]
                int[] curveVertexCounts = [46]
                int[] newton:rodPointIndices = [1, 38, 37, 36, 35, 34, 33, 32, 31, 30, 29, 28, 27, 26, 25, 24, 23, 22, 21, 20, 19, 18, 17, 16, 15, 14, 13, 12, 11, 10, 9, 8, 7, 6, 5, 4, 3, 0, 39, 40, 41, 42, 43, 44, 45, 1]
                uniform token type = "linear"
                uniform token wrap = "nonperiodic"
                float[] widths = [0.0030, 0.0030, 0.0030, 0.0030, 0.0030, 0.0030, 0.0030, 0.0030, 0.0030, 0.0030, 0.0030, 0.0030, 0.0030, 0.0030, 0.0030, 0.0030, 0.0030, 0.0030, 0.0030, 0.0030, 0.0030, 0.0030, 0.0030, 0.0030, 0.0030, 0.0030, 0.0030, 0.0030, 0.0030, 0.0030, 0.0030, 0.0030, 0.0030, 0.0030, 0.0030, 0.0030, 0.0030, 0.0030, 0.0030, 0.0030, 0.0030, 0.0030, 0.0030, 0.0030, 0.0030, 0.0030]
                point3f[] points = [(0.37344, 0.00000, 0.08875), (0.36625, 0.00000, 0.08750), (0.36125, 0.00000, 0.08500), (0.35625, 0.00000, 0.08375), (0.35000, 0.00000, 0.08125), (0.34500, 0.00000, 0.07875), (0.34000, 0.00000, 0.07625), (0.33375, 0.00000, 0.07500), (0.32875, 0.00000, 0.07375), (0.32250, 0.00000, 0.07250), (0.31625, 0.00000, 0.07375), (0.31125, 0.00000, 0.07625), (0.30625, 0.00000, 0.08000), (0.30250, 0.00000, 0.08375), (0.29875, 0.00000, 0.09000), (0.29750, 0.00000, 0.09500), (0.29500, 0.00000, 0.10000), (0.29500, 0.00000, 0.10625), (0.29375, 0.00000, 0.11250), (0.29375, 0.00000, 0.11875), (0.29375, 0.00000, 0.12500), (0.29500, 0.00000, 0.13125), (0.29750, 0.00000, 0.13625), (0.29875, 0.00000, 0.14125), (0.30250, 0.00000, 0.14750), (0.30625, 0.00000, 0.15125), (0.31125, 0.00000, 0.15500), (0.31625, 0.00000, 0.15750), (0.32250, 0.00000, 0.15875), (0.32875, 0.00000, 0.15750), (0.33375, 0.00000, 0.15625), (0.34000, 0.00000, 0.15500), (0.34500, 0.00000, 0.15250), (0.35000, 0.00000, 0.15000), (0.35500, 0.00000, 0.14750), (0.36125, 0.00000, 0.14500), (0.36625, 0.00000, 0.14250), (0.37344, 0.00000, 0.14250), (0.37375, 0.00000, 0.13500), (0.37375, 0.00000, 0.12875), (0.37375, 0.00000, 0.12250), (0.37375, 0.00000, 0.11625), (0.37375, 0.00000, 0.10875), (0.37375, 0.00000, 0.10250), (0.37375, 0.00000, 0.09625), (0.37344, 0.00000, 0.08875)]
            }
            def BasisCurves "visual_1" (
                prepend apiSchemas = ["NewtonRodVisualCurveAPI"]
            ) {
                uniform token[] curveType = ["linear"]
                int[] curveVertexCounts = [8]
                int[] newton:rodPointIndices = [1, 46, 47, 48, 49, 50, 51, 2]
                uniform token type = "linear"
                uniform token wrap = "nonperiodic"
                float[] widths = [0.0030, 0.0030, 0.0030, 0.0030, 0.0030, 0.0030, 0.0030, 0.0030]
                point3f[] points = [(0.37344, 0.00000, 0.08875), (0.37375, 0.00000, 0.08125), (0.37375, 0.00000, 0.07500), (0.37375, 0.00000, 0.06875), (0.37000, 0.00000, 0.06375), (0.36500, 0.00000, 0.05875), (0.36000, 0.00000, 0.05500), (0.35500, 0.00000, 0.05125)]
            }

            def Xform "attach_world_11" (
                prepend apiSchemas = ["NewtonRodAttachmentAPI"]
            ) {
                int[] newton:nodeIndices = [11]
            }
        }
        def Xform "curve_3" (  # character 'h'
            prepend apiSchemas = ["NewtonRodAPI", "MaterialBindingAPI"]
        )
        {
            rel material:binding = </World/Looks/CablePhysicsMaterial> (
                bindMaterialAs = "weakerThanDescendants"
            )
            point3f[] newton:points = [(0.47500, 0.00000, 0.19500), (0.47406, 0.00000, 0.14250), (0.47250, 0.00000, 0.07750), (0.54750, 0.00000, 0.07750), (0.47375, 0.00000, 0.18875), (0.47375, 0.00000, 0.18250), (0.47375, 0.00000, 0.17625), (0.47375, 0.00000, 0.17000), (0.47375, 0.00000, 0.16375), (0.47375, 0.00000, 0.15625), (0.47375, 0.00000, 0.15000), (0.48125, 0.00000, 0.14375), (0.48625, 0.00000, 0.14625), (0.49250, 0.00000, 0.14750), (0.49750, 0.00000, 0.15000), (0.50250, 0.00000, 0.15125), (0.50875, 0.00000, 0.15375), (0.51375, 0.00000, 0.15625), (0.52000, 0.00000, 0.15750), (0.52625, 0.00000, 0.15750), (0.53125, 0.00000, 0.15750), (0.53625, 0.00000, 0.15500), (0.54125, 0.00000, 0.15000), (0.54375, 0.00000, 0.14500), (0.54500, 0.00000, 0.13875), (0.54625, 0.00000, 0.13375), (0.54750, 0.00000, 0.12750), (0.54750, 0.00000, 0.12125), (0.54750, 0.00000, 0.11500), (0.54875, 0.00000, 0.10875), (0.54875, 0.00000, 0.10250), (0.54875, 0.00000, 0.09625), (0.54875, 0.00000, 0.09000), (0.54875, 0.00000, 0.08375), (0.47375, 0.00000, 0.13500), (0.47375, 0.00000, 0.12875), (0.47375, 0.00000, 0.12250), (0.47375, 0.00000, 0.11500), (0.47375, 0.00000, 0.10875), (0.47375, 0.00000, 0.10250), (0.47375, 0.00000, 0.09625), (0.47375, 0.00000, 0.09000), (0.47375, 0.00000, 0.08375)]
            float[] newton:radius = [0.00150]
            float newton:contact_ke = 100.0
            float newton:contact_kd = 1.0

            int2[] newton:edges = [(2, 42), (26, 27), (16, 17), (35, 36), (12, 13), (21, 22), (1, 34), (22, 23), (31, 32), (8, 9), (40, 41), (17, 18), (36, 37), (25, 26), (27, 28), (13, 14), (41, 42), (32, 33), (18, 19), (4, 5), (5, 6), (14, 15), (23, 24), (9, 10), (0, 4), (3, 33), (1, 11), (19, 20), (28, 29), (37, 38), (24, 25), (15, 16), (6, 7), (20, 21), (29, 30), (38, 39), (39, 40), (34, 35), (11, 12), (1, 10), (30, 31), (7, 8)]

            float[] newton:stretchStiffness = [1000.44]
            float[] newton:stretchDamping = [1e-05]
            float[] newton:bendStiffness = [0.824]
            float[] newton:bendDamping = [10.0]

            bool newton:wrapInArticulation = true

            def BasisCurves "visual_0" (
                prepend apiSchemas = ["NewtonRodVisualCurveAPI"]
            ) {
                uniform token[] curveType = ["linear"]
                int[] curveVertexCounts = [9]
                int[] newton:rodPointIndices = [0, 4, 5, 6, 7, 8, 9, 10, 1]
                uniform token type = "linear"
                uniform token wrap = "nonperiodic"
                float[] widths = [0.0030, 0.0030, 0.0030, 0.0030, 0.0030, 0.0030, 0.0030, 0.0030, 0.0030]
                point3f[] points = [(0.47500, 0.00000, 0.19500), (0.47375, 0.00000, 0.18875), (0.47375, 0.00000, 0.18250), (0.47375, 0.00000, 0.17625), (0.47375, 0.00000, 0.17000), (0.47375, 0.00000, 0.16375), (0.47375, 0.00000, 0.15625), (0.47375, 0.00000, 0.15000), (0.47406, 0.00000, 0.14250)]
            }
            def BasisCurves "visual_1" (
                prepend apiSchemas = ["NewtonRodVisualCurveAPI"]
            ) {
                uniform token[] curveType = ["linear"]
                int[] curveVertexCounts = [25]
                int[] newton:rodPointIndices = [1, 11, 12, 13, 14, 15, 16, 17, 18, 19, 20, 21, 22, 23, 24, 25, 26, 27, 28, 29, 30, 31, 32, 33, 3]
                uniform token type = "linear"
                uniform token wrap = "nonperiodic"
                float[] widths = [0.0030, 0.0030, 0.0030, 0.0030, 0.0030, 0.0030, 0.0030, 0.0030, 0.0030, 0.0030, 0.0030, 0.0030, 0.0030, 0.0030, 0.0030, 0.0030, 0.0030, 0.0030, 0.0030, 0.0030, 0.0030, 0.0030, 0.0030, 0.0030, 0.0030]
                point3f[] points = [(0.47406, 0.00000, 0.14250), (0.48125, 0.00000, 0.14375), (0.48625, 0.00000, 0.14625), (0.49250, 0.00000, 0.14750), (0.49750, 0.00000, 0.15000), (0.50250, 0.00000, 0.15125), (0.50875, 0.00000, 0.15375), (0.51375, 0.00000, 0.15625), (0.52000, 0.00000, 0.15750), (0.52625, 0.00000, 0.15750), (0.53125, 0.00000, 0.15750), (0.53625, 0.00000, 0.15500), (0.54125, 0.00000, 0.15000), (0.54375, 0.00000, 0.14500), (0.54500, 0.00000, 0.13875), (0.54625, 0.00000, 0.13375), (0.54750, 0.00000, 0.12750), (0.54750, 0.00000, 0.12125), (0.54750, 0.00000, 0.11500), (0.54875, 0.00000, 0.10875), (0.54875, 0.00000, 0.10250), (0.54875, 0.00000, 0.09625), (0.54875, 0.00000, 0.09000), (0.54875, 0.00000, 0.08375), (0.54750, 0.00000, 0.07750)]
            }
            def BasisCurves "visual_2" (
                prepend apiSchemas = ["NewtonRodVisualCurveAPI"]
            ) {
                uniform token[] curveType = ["linear"]
                int[] curveVertexCounts = [11]
                int[] newton:rodPointIndices = [1, 34, 35, 36, 37, 38, 39, 40, 41, 42, 2]
                uniform token type = "linear"
                uniform token wrap = "nonperiodic"
                float[] widths = [0.0030, 0.0030, 0.0030, 0.0030, 0.0030, 0.0030, 0.0030, 0.0030, 0.0030, 0.0030, 0.0030]
                point3f[] points = [(0.47406, 0.00000, 0.14250), (0.47375, 0.00000, 0.13500), (0.47375, 0.00000, 0.12875), (0.47375, 0.00000, 0.12250), (0.47375, 0.00000, 0.11500), (0.47375, 0.00000, 0.10875), (0.47375, 0.00000, 0.10250), (0.47375, 0.00000, 0.09625), (0.47375, 0.00000, 0.09000), (0.47375, 0.00000, 0.08375), (0.47250, 0.00000, 0.07750)]
            }

            def Xform "attach_world_0" (
                prepend apiSchemas = ["NewtonRodAttachmentAPI"]
            ) {
                int[] newton:nodeIndices = [0]
            }
        }
        def Xform "curve_4" (  # character 't'
            prepend apiSchemas = ["NewtonRodAPI", "MaterialBindingAPI"]
        )
        {
            rel material:binding = </World/Looks/CablePhysicsMaterial> (
                bindMaterialAs = "weakerThanDescendants"
            )
            point3f[] newton:points = [(0.65000, 0.00000, 0.18250), (0.69125, 0.00000, 0.15750), (0.62500, 0.00000, 0.15625), (0.64875, 0.00000, 0.15750), (0.68875, 0.00000, 0.07250), (0.64875, 0.00000, 0.17750), (0.64875, 0.00000, 0.17125), (0.64875, 0.00000, 0.16500), (0.64125, 0.00000, 0.15750), (0.63625, 0.00000, 0.15750), (0.63000, 0.00000, 0.15750), (0.65625, 0.00000, 0.15750), (0.66125, 0.00000, 0.15750), (0.66750, 0.00000, 0.15750), (0.67375, 0.00000, 0.15750), (0.68000, 0.00000, 0.15750), (0.68500, 0.00000, 0.15750), (0.64875, 0.00000, 0.15000), (0.64875, 0.00000, 0.14375), (0.64875, 0.00000, 0.13750), (0.64875, 0.00000, 0.13125), (0.64875, 0.00000, 0.12500), (0.64875, 0.00000, 0.12000), (0.64875, 0.00000, 0.11375), (0.64875, 0.00000, 0.10750), (0.65000, 0.00000, 0.10125), (0.65000, 0.00000, 0.09500), (0.65125, 0.00000, 0.09000), (0.65250, 0.00000, 0.08375), (0.65500, 0.00000, 0.07875), (0.65875, 0.00000, 0.07500), (0.66500, 0.00000, 0.07250), (0.67000, 0.00000, 0.07250), (0.67625, 0.00000, 0.07250), (0.68250, 0.00000, 0.07250)]
            float[] newton:radius = [0.00150]
            float newton:contact_ke = 100.0
            float newton:contact_kd = 1.0

            int2[] newton:edges = [(26, 27), (3, 7), (21, 22), (12, 13), (31, 32), (22, 23), (8, 9), (0, 5), (17, 18), (27, 28), (13, 14), (32, 33), (18, 19), (5, 6), (14, 15), (23, 24), (9, 10), (2, 10), (28, 29), (19, 20), (6, 7), (15, 16), (24, 25), (33, 34), (3, 11), (20, 21), (29, 30), (3, 8), (3, 17), (11, 12), (4, 34), (1, 16), (30, 31), (25, 26)]

            float[] newton:stretchStiffness = [1000.44]
            float[] newton:stretchDamping = [1e-05]
            float[] newton:bendStiffness = [0.824]
            float[] newton:bendDamping = [10.0]

            bool newton:wrapInArticulation = true

            def BasisCurves "visual_0" (
                prepend apiSchemas = ["NewtonRodVisualCurveAPI"]
            ) {
                uniform token[] curveType = ["linear"]
                int[] curveVertexCounts = [5]
                int[] newton:rodPointIndices = [0, 5, 6, 7, 3]
                uniform token type = "linear"
                uniform token wrap = "nonperiodic"
                float[] widths = [0.0030, 0.0030, 0.0030, 0.0030, 0.0030]
                point3f[] points = [(0.65000, 0.00000, 0.18250), (0.64875, 0.00000, 0.17750), (0.64875, 0.00000, 0.17125), (0.64875, 0.00000, 0.16500), (0.64875, 0.00000, 0.15750)]
            }
            def BasisCurves "visual_1" (
                prepend apiSchemas = ["NewtonRodVisualCurveAPI"]
            ) {
                uniform token[] curveType = ["linear"]
                int[] curveVertexCounts = [8]
                int[] newton:rodPointIndices = [1, 16, 15, 14, 13, 12, 11, 3]
                uniform token type = "linear"
                uniform token wrap = "nonperiodic"
                float[] widths = [0.0030, 0.0030, 0.0030, 0.0030, 0.0030, 0.0030, 0.0030, 0.0030]
                point3f[] points = [(0.69125, 0.00000, 0.15750), (0.68500, 0.00000, 0.15750), (0.68000, 0.00000, 0.15750), (0.67375, 0.00000, 0.15750), (0.66750, 0.00000, 0.15750), (0.66125, 0.00000, 0.15750), (0.65625, 0.00000, 0.15750), (0.64875, 0.00000, 0.15750)]
            }
            def BasisCurves "visual_2" (
                prepend apiSchemas = ["NewtonRodVisualCurveAPI"]
            ) {
                uniform token[] curveType = ["linear"]
                int[] curveVertexCounts = [5]
                int[] newton:rodPointIndices = [2, 10, 9, 8, 3]
                uniform token type = "linear"
                uniform token wrap = "nonperiodic"
                float[] widths = [0.0030, 0.0030, 0.0030, 0.0030, 0.0030]
                point3f[] points = [(0.62500, 0.00000, 0.15625), (0.63000, 0.00000, 0.15750), (0.63625, 0.00000, 0.15750), (0.64125, 0.00000, 0.15750), (0.64875, 0.00000, 0.15750)]
            }
            def BasisCurves "visual_3" (
                prepend apiSchemas = ["NewtonRodVisualCurveAPI"]
            ) {
                uniform token[] curveType = ["linear"]
                int[] curveVertexCounts = [20]
                int[] newton:rodPointIndices = [3, 17, 18, 19, 20, 21, 22, 23, 24, 25, 26, 27, 28, 29, 30, 31, 32, 33, 34, 4]
                uniform token type = "linear"
                uniform token wrap = "nonperiodic"
                float[] widths = [0.0030, 0.0030, 0.0030, 0.0030, 0.0030, 0.0030, 0.0030, 0.0030, 0.0030, 0.0030, 0.0030, 0.0030, 0.0030, 0.0030, 0.0030, 0.0030, 0.0030, 0.0030, 0.0030, 0.0030]
                point3f[] points = [(0.64875, 0.00000, 0.15750), (0.64875, 0.00000, 0.15000), (0.64875, 0.00000, 0.14375), (0.64875, 0.00000, 0.13750), (0.64875, 0.00000, 0.13125), (0.64875, 0.00000, 0.12500), (0.64875, 0.00000, 0.12000), (0.64875, 0.00000, 0.11375), (0.64875, 0.00000, 0.10750), (0.65000, 0.00000, 0.10125), (0.65000, 0.00000, 0.09500), (0.65125, 0.00000, 0.09000), (0.65250, 0.00000, 0.08375), (0.65500, 0.00000, 0.07875), (0.65875, 0.00000, 0.07500), (0.66500, 0.00000, 0.07250), (0.67000, 0.00000, 0.07250), (0.67625, 0.00000, 0.07250), (0.68250, 0.00000, 0.07250), (0.68875, 0.00000, 0.07250)]
            }

            def Xform "attach_world_0" (
                prepend apiSchemas = ["NewtonRodAttachmentAPI"]
            ) {
                int[] newton:nodeIndices = [0]
            }
        }
        def Xform "curve_5" (  # character 'w'
            prepend apiSchemas = ["NewtonRodAPI", "MaterialBindingAPI"]
        )
        {
            rel material:binding = </World/Looks/CablePhysicsMaterial> (
                bindMaterialAs = "weakerThanDescendants"
            )
            point3f[] newton:points = [(0.74750, 0.00000, 0.16750), (0.91250, 0.00000, 0.16750), (0.82875, 0.00000, 0.14656), (0.75250, 0.00000, 0.16375), (0.75750, 0.00000, 0.16000), (0.76250, 0.00000, 0.15750), (0.76500, 0.00000, 0.15250), (0.76625, 0.00000, 0.14625), (0.76750, 0.00000, 0.14125), (0.76875, 0.00000, 0.13500), (0.77125, 0.00000, 0.13000), (0.77250, 0.00000, 0.12375), (0.77375, 0.00000, 0.11875), (0.77500, 0.00000, 0.11250), (0.77625, 0.00000, 0.10750), (0.77875, 0.00000, 0.10125), (0.78000, 0.00000, 0.09625), (0.78125, 0.00000, 0.09000), (0.78250, 0.00000, 0.08500), (0.78625, 0.00000, 0.08000), (0.79125, 0.00000, 0.07750), (0.79625, 0.00000, 0.08000), (0.80125, 0.00000, 0.08375), (0.80625, 0.00000, 0.08750), (0.80750, 0.00000, 0.09375), (0.80875, 0.00000, 0.09875), (0.81000, 0.00000, 0.10500), (0.81125, 0.00000, 0.11000), (0.81375, 0.00000, 0.11625), (0.81500, 0.00000, 0.12125), (0.81625, 0.00000, 0.12750), (0.81750, 0.00000, 0.13250), (0.81875, 0.00000, 0.13875), (0.82250, 0.00000, 0.14250), (0.90750, 0.00000, 0.16500), (0.90250, 0.00000, 0.16125), (0.89750, 0.00000, 0.15875), (0.89250, 0.00000, 0.15375), (0.89125, 0.00000, 0.14875), (0.89000, 0.00000, 0.14250), (0.88875, 0.00000, 0.13750), (0.88750, 0.00000, 0.13125), (0.88625, 0.00000, 0.12500), (0.88500, 0.00000, 0.12000), (0.88375, 0.00000, 0.11375), (0.88250, 0.00000, 0.10875), (0.88000, 0.00000, 0.10250), (0.87875, 0.00000, 0.09750), (0.87750, 0.00000, 0.09125), (0.87625, 0.00000, 0.08500), (0.87250, 0.00000, 0.08125), (0.86625, 0.00000, 0.07875), (0.86125, 0.00000, 0.08125), (0.85625, 0.00000, 0.08500), (0.85250, 0.00000, 0.08875), (0.85125, 0.00000, 0.09375), (0.84875, 0.00000, 0.10000), (0.84750, 0.00000, 0.10500), (0.84625, 0.00000, 0.11125), (0.84500, 0.00000, 0.11750), (0.84375, 0.00000, 0.12250), (0.84250, 0.00000, 0.12875), (0.84125, 0.00000, 0.13375), (0.84000, 0.00000, 0.14000), (0.83500, 0.00000, 0.14375)]
            float[] newton:radius = [0.00150]
            float newton:contact_ke = 100.0
            float newton:contact_kd = 1.0

            int2[] newton:edges = [(2, 33), (58, 59), (3, 4), (1, 34), (35, 36), (44, 45), (26, 27), (21, 22), (12, 13), (31, 32), (22, 23), (8, 9), (40, 41), (49, 50), (17, 18), (27, 28), (36, 37), (25, 26), (13, 14), (63, 64), (54, 55), (45, 46), (55, 56), (32, 33), (41, 42), (50, 51), (18, 19), (4, 5), (59, 60), (51, 52), (60, 61), (5, 6), (46, 47), (23, 24), (14, 15), (9, 10), (10, 11), (28, 29), (37, 38), (19, 20), (6, 7), (15, 16), (24, 25), (47, 48), (56, 57), (42, 43), (43, 44), (20, 21), (29, 30), (62, 63), (61, 62), (52, 53), (38, 39), (39, 40), (48, 49), (0, 3), (57, 58), (34, 35), (2, 64), (11, 12), (7, 8), (53, 54), (30, 31), (16, 17)]

            float[] newton:stretchStiffness = [1000.44]
            float[] newton:stretchDamping = [1e-05]
            float[] newton:bendStiffness = [0.824]
            float[] newton:bendDamping = [10.0]

            bool newton:wrapInArticulation = true

            def BasisCurves "visual_0" (
                prepend apiSchemas = ["NewtonRodVisualCurveAPI"]
            ) {
                uniform token[] curveType = ["linear"]
                int[] curveVertexCounts = [65]
                int[] newton:rodPointIndices = [0, 3, 4, 5, 6, 7, 8, 9, 10, 11, 12, 13, 14, 15, 16, 17, 18, 19, 20, 21, 22, 23, 24, 25, 26, 27, 28, 29, 30, 31, 32, 33, 2, 64, 63, 62, 61, 60, 59, 58, 57, 56, 55, 54, 53, 52, 51, 50, 49, 48, 47, 46, 45, 44, 43, 42, 41, 40, 39, 38, 37, 36, 35, 34, 1]
                uniform token type = "linear"
                uniform token wrap = "nonperiodic"
                float[] widths = [0.0030, 0.0030, 0.0030, 0.0030, 0.0030, 0.0030, 0.0030, 0.0030, 0.0030, 0.0030, 0.0030, 0.0030, 0.0030, 0.0030, 0.0030, 0.0030, 0.0030, 0.0030, 0.0030, 0.0030, 0.0030, 0.0030, 0.0030, 0.0030, 0.0030, 0.0030, 0.0030, 0.0030, 0.0030, 0.0030, 0.0030, 0.0030, 0.0030, 0.0030, 0.0030, 0.0030, 0.0030, 0.0030, 0.0030, 0.0030, 0.0030, 0.0030, 0.0030, 0.0030, 0.0030, 0.0030, 0.0030, 0.0030, 0.0030, 0.0030, 0.0030, 0.0030, 0.0030, 0.0030, 0.0030, 0.0030, 0.0030, 0.0030, 0.0030, 0.0030, 0.0030, 0.0030, 0.0030, 0.0030, 0.0030]
                point3f[] points = [(0.74750, 0.00000, 0.16750), (0.75250, 0.00000, 0.16375), (0.75750, 0.00000, 0.16000), (0.76250, 0.00000, 0.15750), (0.76500, 0.00000, 0.15250), (0.76625, 0.00000, 0.14625), (0.76750, 0.00000, 0.14125), (0.76875, 0.00000, 0.13500), (0.77125, 0.00000, 0.13000), (0.77250, 0.00000, 0.12375), (0.77375, 0.00000, 0.11875), (0.77500, 0.00000, 0.11250), (0.77625, 0.00000, 0.10750), (0.77875, 0.00000, 0.10125), (0.78000, 0.00000, 0.09625), (0.78125, 0.00000, 0.09000), (0.78250, 0.00000, 0.08500), (0.78625, 0.00000, 0.08000), (0.79125, 0.00000, 0.07750), (0.79625, 0.00000, 0.08000), (0.80125, 0.00000, 0.08375), (0.80625, 0.00000, 0.08750), (0.80750, 0.00000, 0.09375), (0.80875, 0.00000, 0.09875), (0.81000, 0.00000, 0.10500), (0.81125, 0.00000, 0.11000), (0.81375, 0.00000, 0.11625), (0.81500, 0.00000, 0.12125), (0.81625, 0.00000, 0.12750), (0.81750, 0.00000, 0.13250), (0.81875, 0.00000, 0.13875), (0.82250, 0.00000, 0.14250), (0.82875, 0.00000, 0.14656), (0.83500, 0.00000, 0.14375), (0.84000, 0.00000, 0.14000), (0.84125, 0.00000, 0.13375), (0.84250, 0.00000, 0.12875), (0.84375, 0.00000, 0.12250), (0.84500, 0.00000, 0.11750), (0.84625, 0.00000, 0.11125), (0.84750, 0.00000, 0.10500), (0.84875, 0.00000, 0.10000), (0.85125, 0.00000, 0.09375), (0.85250, 0.00000, 0.08875), (0.85625, 0.00000, 0.08500), (0.86125, 0.00000, 0.08125), (0.86625, 0.00000, 0.07875), (0.87250, 0.00000, 0.08125), (0.87625, 0.00000, 0.08500), (0.87750, 0.00000, 0.09125), (0.87875, 0.00000, 0.09750), (0.88000, 0.00000, 0.10250), (0.88250, 0.00000, 0.10875), (0.88375, 0.00000, 0.11375), (0.88500, 0.00000, 0.12000), (0.88625, 0.00000, 0.12500), (0.88750, 0.00000, 0.13125), (0.88875, 0.00000, 0.13750), (0.89000, 0.00000, 0.14250), (0.89125, 0.00000, 0.14875), (0.89250, 0.00000, 0.15375), (0.89750, 0.00000, 0.15875), (0.90250, 0.00000, 0.16125), (0.90750, 0.00000, 0.16500), (0.91250, 0.00000, 0.16750)]
            }

            def Xform "attach_world_0" (
                prepend apiSchemas = ["NewtonRodAttachmentAPI"]
            ) {
                int[] newton:nodeIndices = [0]
            }
        }
        def Xform "curve_6" (  # character 'h'
            prepend apiSchemas = ["NewtonRodAPI", "MaterialBindingAPI"]
        )
        {
            rel material:binding = </World/Looks/CablePhysicsMaterial> (
                bindMaterialAs = "weakerThanDescendants"
            )
            point3f[] newton:points = [(0.98750, 0.00000, 0.19500), (0.98656, 0.00000, 0.14250), (0.98500, 0.00000, 0.07750), (1.06000, 0.00000, 0.07750), (0.98625, 0.00000, 0.18875), (0.98625, 0.00000, 0.18250), (0.98625, 0.00000, 0.17625), (0.98625, 0.00000, 0.17000), (0.98625, 0.00000, 0.16375), (0.98625, 0.00000, 0.15625), (0.98625, 0.00000, 0.15000), (0.99375, 0.00000, 0.14375), (0.99875, 0.00000, 0.14625), (1.00500, 0.00000, 0.14750), (1.01000, 0.00000, 0.15000), (1.01500, 0.00000, 0.15125), (1.02125, 0.00000, 0.15375), (1.02625, 0.00000, 0.15625), (1.03250, 0.00000, 0.15750), (1.03875, 0.00000, 0.15750), (1.04375, 0.00000, 0.15750), (1.04875, 0.00000, 0.15500), (1.05375, 0.00000, 0.15000), (1.05625, 0.00000, 0.14500), (1.05750, 0.00000, 0.13875), (1.05875, 0.00000, 0.13375), (1.06000, 0.00000, 0.12750), (1.06000, 0.00000, 0.12125), (1.06000, 0.00000, 0.11500), (1.06125, 0.00000, 0.10875), (1.06125, 0.00000, 0.10250), (1.06125, 0.00000, 0.09625), (1.06125, 0.00000, 0.09000), (1.06125, 0.00000, 0.08375), (0.98625, 0.00000, 0.13500), (0.98625, 0.00000, 0.12875), (0.98625, 0.00000, 0.12250), (0.98625, 0.00000, 0.11500), (0.98625, 0.00000, 0.10875), (0.98625, 0.00000, 0.10250), (0.98625, 0.00000, 0.09625), (0.98625, 0.00000, 0.09000), (0.98625, 0.00000, 0.08375)]
            float[] newton:radius = [0.00150]
            float newton:contact_ke = 100.0
            float newton:contact_kd = 1.0

            int2[] newton:edges = [(2, 42), (26, 27), (16, 17), (35, 36), (12, 13), (21, 22), (1, 34), (22, 23), (31, 32), (8, 9), (40, 41), (17, 18), (36, 37), (25, 26), (27, 28), (13, 14), (41, 42), (32, 33), (18, 19), (4, 5), (5, 6), (14, 15), (23, 24), (9, 10), (0, 4), (3, 33), (1, 11), (19, 20), (28, 29), (37, 38), (24, 25), (15, 16), (6, 7), (20, 21), (29, 30), (38, 39), (39, 40), (34, 35), (11, 12), (1, 10), (30, 31), (7, 8)]

            float[] newton:stretchStiffness = [1000.44]
            float[] newton:stretchDamping = [1e-05]
            float[] newton:bendStiffness = [0.824]
            float[] newton:bendDamping = [10.0]

            bool newton:wrapInArticulation = true

            def BasisCurves "visual_0" (
                prepend apiSchemas = ["NewtonRodVisualCurveAPI"]
            ) {
                uniform token[] curveType = ["linear"]
                int[] curveVertexCounts = [9]
                int[] newton:rodPointIndices = [0, 4, 5, 6, 7, 8, 9, 10, 1]
                uniform token type = "linear"
                uniform token wrap = "nonperiodic"
                float[] widths = [0.0030, 0.0030, 0.0030, 0.0030, 0.0030, 0.0030, 0.0030, 0.0030, 0.0030]
                point3f[] points = [(0.98750, 0.00000, 0.19500), (0.98625, 0.00000, 0.18875), (0.98625, 0.00000, 0.18250), (0.98625, 0.00000, 0.17625), (0.98625, 0.00000, 0.17000), (0.98625, 0.00000, 0.16375), (0.98625, 0.00000, 0.15625), (0.98625, 0.00000, 0.15000), (0.98656, 0.00000, 0.14250)]
            }
            def BasisCurves "visual_1" (
                prepend apiSchemas = ["NewtonRodVisualCurveAPI"]
            ) {
                uniform token[] curveType = ["linear"]
                int[] curveVertexCounts = [25]
                int[] newton:rodPointIndices = [1, 11, 12, 13, 14, 15, 16, 17, 18, 19, 20, 21, 22, 23, 24, 25, 26, 27, 28, 29, 30, 31, 32, 33, 3]
                uniform token type = "linear"
                uniform token wrap = "nonperiodic"
                float[] widths = [0.0030, 0.0030, 0.0030, 0.0030, 0.0030, 0.0030, 0.0030, 0.0030, 0.0030, 0.0030, 0.0030, 0.0030, 0.0030, 0.0030, 0.0030, 0.0030, 0.0030, 0.0030, 0.0030, 0.0030, 0.0030, 0.0030, 0.0030, 0.0030, 0.0030]
                point3f[] points = [(0.98656, 0.00000, 0.14250), (0.99375, 0.00000, 0.14375), (0.99875, 0.00000, 0.14625), (1.00500, 0.00000, 0.14750), (1.01000, 0.00000, 0.15000), (1.01500, 0.00000, 0.15125), (1.02125, 0.00000, 0.15375), (1.02625, 0.00000, 0.15625), (1.03250, 0.00000, 0.15750), (1.03875, 0.00000, 0.15750), (1.04375, 0.00000, 0.15750), (1.04875, 0.00000, 0.15500), (1.05375, 0.00000, 0.15000), (1.05625, 0.00000, 0.14500), (1.05750, 0.00000, 0.13875), (1.05875, 0.00000, 0.13375), (1.06000, 0.00000, 0.12750), (1.06000, 0.00000, 0.12125), (1.06000, 0.00000, 0.11500), (1.06125, 0.00000, 0.10875), (1.06125, 0.00000, 0.10250), (1.06125, 0.00000, 0.09625), (1.06125, 0.00000, 0.09000), (1.06125, 0.00000, 0.08375), (1.06000, 0.00000, 0.07750)]
            }
            def BasisCurves "visual_2" (
                prepend apiSchemas = ["NewtonRodVisualCurveAPI"]
            ) {
                uniform token[] curveType = ["linear"]
                int[] curveVertexCounts = [11]
                int[] newton:rodPointIndices = [1, 34, 35, 36, 37, 38, 39, 40, 41, 42, 2]
                uniform token type = "linear"
                uniform token wrap = "nonperiodic"
                float[] widths = [0.0030, 0.0030, 0.0030, 0.0030, 0.0030, 0.0030, 0.0030, 0.0030, 0.0030, 0.0030, 0.0030]
                point3f[] points = [(0.98656, 0.00000, 0.14250), (0.98625, 0.00000, 0.13500), (0.98625, 0.00000, 0.12875), (0.98625, 0.00000, 0.12250), (0.98625, 0.00000, 0.11500), (0.98625, 0.00000, 0.10875), (0.98625, 0.00000, 0.10250), (0.98625, 0.00000, 0.09625), (0.98625, 0.00000, 0.09000), (0.98625, 0.00000, 0.08375), (0.98500, 0.00000, 0.07750)]
            }

            def Xform "attach_world_0" (
                prepend apiSchemas = ["NewtonRodAttachmentAPI"]
            ) {
                int[] newton:nodeIndices = [0]
            }
        }
        def Xform "curve_7" (  # character 'e'
            prepend apiSchemas = ["NewtonRodAPI", "MaterialBindingAPI"]
        )
        {
            rel material:binding = </World/Looks/CablePhysicsMaterial> (
                bindMaterialAs = "weakerThanDescendants"
            )
            point3f[] newton:points = [(1.23000, 0.00000, 0.12031), (1.24000, 0.00000, 0.11500), (1.15225, 0.00000, 0.11500), (1.24500, 0.00000, 0.09250), (1.22875, 0.00000, 0.12750), (1.22875, 0.00000, 0.13250), (1.22625, 0.00000, 0.13875), (1.22375, 0.00000, 0.14375), (1.22125, 0.00000, 0.14875), (1.21625, 0.00000, 0.15375), (1.21250, 0.00000, 0.15625), (1.20625, 0.00000, 0.15875), (1.20125, 0.00000, 0.16000), (1.19500, 0.00000, 0.16000), (1.19000, 0.00000, 0.16000), (1.18375, 0.00000, 0.16000), (1.17750, 0.00000, 0.15875), (1.17250, 0.00000, 0.15625), (1.16750, 0.00000, 0.15250), (1.16250, 0.00000, 0.14875), (1.16000, 0.00000, 0.14500), (1.15625, 0.00000, 0.13875), (1.15500, 0.00000, 0.13375), (1.15375, 0.00000, 0.12875), (1.15250, 0.00000, 0.12250), (1.22375, 0.00000, 0.11500), (1.21750, 0.00000, 0.11500), (1.21125, 0.00000, 0.11500), (1.20500, 0.00000, 0.11500), (1.19875, 0.00000, 0.11500), (1.19250, 0.00000, 0.11500), (1.18625, 0.00000, 0.11500), (1.18000, 0.00000, 0.11500), (1.17250, 0.00000, 0.11500), (1.16625, 0.00000, 0.11500), (1.16000, 0.00000, 0.11500), (1.23500, 0.00000, 0.11750), (1.15250, 0.00000, 0.10750), (1.15375, 0.00000, 0.10250), (1.15500, 0.00000, 0.09625), (1.15625, 0.00000, 0.09000), (1.15875, 0.00000, 0.08500), (1.16250, 0.00000, 0.08000), (1.16750, 0.00000, 0.07625), (1.17250, 0.00000, 0.07250), (1.17750, 0.00000, 0.07125), (1.18375, 0.00000, 0.07000), (1.18875, 0.00000, 0.06875), (1.19625, 0.00000, 0.06875), (1.20250, 0.00000, 0.06875), (1.20875, 0.00000, 0.06875), (1.21375, 0.00000, 0.07000), (1.22000, 0.00000, 0.07125), (1.22625, 0.00000, 0.07250), (1.23125, 0.00000, 0.07375), (1.23625, 0.00000, 0.07625), (1.24000, 0.00000, 0.08250), (1.24250, 0.00000, 0.08750)]
            float[] newton:radius = [0.00150]
            float newton:contact_ke = 100.0
            float newton:contact_kd = 1.0

            int2[] newton:edges = [(0, 36), (44, 45), (26, 27), (16, 17), (12, 13), (21, 22), (22, 23), (31, 32), (8, 9), (40, 41), (49, 50), (17, 18), (27, 28), (2, 24), (13, 14), (45, 46), (54, 55), (55, 56), (32, 33), (41, 42), (50, 51), (2, 35), (18, 19), (4, 5), (1, 36), (51, 52), (5, 6), (46, 47), (14, 15), (23, 24), (9, 10), (10, 11), (0, 4), (19, 20), (28, 29), (37, 38), (15, 16), (6, 7), (0, 25), (47, 48), (56, 57), (42, 43), (3, 57), (33, 34), (43, 44), (2, 37), (29, 30), (20, 21), (52, 53), (38, 39), (48, 49), (39, 40), (34, 35), (11, 12), (7, 8), (53, 54), (30, 31), (25, 26)]

            float[] newton:stretchStiffness = [1000.44]
            float[] newton:stretchDamping = [1e-05]
            float[] newton:bendStiffness = [0.824]
            float[] newton:bendDamping = [10.0]

            bool newton:wrapInArticulation = true

            def BasisCurves "visual_0" (
                prepend apiSchemas = ["NewtonRodVisualCurveAPI"]
            ) {
                uniform token[] curveType = ["linear"]
                int[] curveVertexCounts = [23]
                int[] newton:rodPointIndices = [0, 4, 5, 6, 7, 8, 9, 10, 11, 12, 13, 14, 15, 16, 17, 18, 19, 20, 21, 22, 23, 24, 2]
                uniform token type = "linear"
                uniform token wrap = "nonperiodic"
                float[] widths = [0.0030, 0.0030, 0.0030, 0.0030, 0.0030, 0.0030, 0.0030, 0.0030, 0.0030, 0.0030, 0.0030, 0.0030, 0.0030, 0.0030, 0.0030, 0.0030, 0.0030, 0.0030, 0.0030, 0.0030, 0.0030, 0.0030, 0.0030]
                point3f[] points = [(1.23000, 0.00000, 0.12031), (1.22875, 0.00000, 0.12750), (1.22875, 0.00000, 0.13250), (1.22625, 0.00000, 0.13875), (1.22375, 0.00000, 0.14375), (1.22125, 0.00000, 0.14875), (1.21625, 0.00000, 0.15375), (1.21250, 0.00000, 0.15625), (1.20625, 0.00000, 0.15875), (1.20125, 0.00000, 0.16000), (1.19500, 0.00000, 0.16000), (1.19000, 0.00000, 0.16000), (1.18375, 0.00000, 0.16000), (1.17750, 0.00000, 0.15875), (1.17250, 0.00000, 0.15625), (1.16750, 0.00000, 0.15250), (1.16250, 0.00000, 0.14875), (1.16000, 0.00000, 0.14500), (1.15625, 0.00000, 0.13875), (1.15500, 0.00000, 0.13375), (1.15375, 0.00000, 0.12875), (1.15250, 0.00000, 0.12250), (1.15225, 0.00000, 0.11500)]
            }
            def BasisCurves "visual_1" (
                prepend apiSchemas = ["NewtonRodVisualCurveAPI"]
            ) {
                uniform token[] curveType = ["linear"]
                int[] curveVertexCounts = [13]
                int[] newton:rodPointIndices = [0, 25, 26, 27, 28, 29, 30, 31, 32, 33, 34, 35, 2]
                uniform token type = "linear"
                uniform token wrap = "nonperiodic"
                float[] widths = [0.0030, 0.0030, 0.0030, 0.0030, 0.0030, 0.0030, 0.0030, 0.0030, 0.0030, 0.0030, 0.0030, 0.0030, 0.0030]
                point3f[] points = [(1.23000, 0.00000, 0.12031), (1.22375, 0.00000, 0.11500), (1.21750, 0.00000, 0.11500), (1.21125, 0.00000, 0.11500), (1.20500, 0.00000, 0.11500), (1.19875, 0.00000, 0.11500), (1.19250, 0.00000, 0.11500), (1.18625, 0.00000, 0.11500), (1.18000, 0.00000, 0.11500), (1.17250, 0.00000, 0.11500), (1.16625, 0.00000, 0.11500), (1.16000, 0.00000, 0.11500), (1.15225, 0.00000, 0.11500)]
            }
            def BasisCurves "visual_2" (
                prepend apiSchemas = ["NewtonRodVisualCurveAPI"]
            ) {
                uniform token[] curveType = ["linear"]
                int[] curveVertexCounts = [3]
                int[] newton:rodPointIndices = [0, 36, 1]
                uniform token type = "linear"
                uniform token wrap = "nonperiodic"
                float[] widths = [0.0030, 0.0030, 0.0030]
                point3f[] points = [(1.23000, 0.00000, 0.12031), (1.23500, 0.00000, 0.11750), (1.24000, 0.00000, 0.11500)]
            }
            def BasisCurves "visual_3" (
                prepend apiSchemas = ["NewtonRodVisualCurveAPI"]
            ) {
                uniform token[] curveType = ["linear"]
                int[] curveVertexCounts = [23]
                int[] newton:rodPointIndices = [2, 37, 38, 39, 40, 41, 42, 43, 44, 45, 46, 47, 48, 49, 50, 51, 52, 53, 54, 55, 56, 57, 3]
                uniform token type = "linear"
                uniform token wrap = "nonperiodic"
                float[] widths = [0.0030, 0.0030, 0.0030, 0.0030, 0.0030, 0.0030, 0.0030, 0.0030, 0.0030, 0.0030, 0.0030, 0.0030, 0.0030, 0.0030, 0.0030, 0.0030, 0.0030, 0.0030, 0.0030, 0.0030, 0.0030, 0.0030, 0.0030]
                point3f[] points = [(1.15225, 0.00000, 0.11500), (1.15250, 0.00000, 0.10750), (1.15375, 0.00000, 0.10250), (1.15500, 0.00000, 0.09625), (1.15625, 0.00000, 0.09000), (1.15875, 0.00000, 0.08500), (1.16250, 0.00000, 0.08000), (1.16750, 0.00000, 0.07625), (1.17250, 0.00000, 0.07250), (1.17750, 0.00000, 0.07125), (1.18375, 0.00000, 0.07000), (1.18875, 0.00000, 0.06875), (1.19625, 0.00000, 0.06875), (1.20250, 0.00000, 0.06875), (1.20875, 0.00000, 0.06875), (1.21375, 0.00000, 0.07000), (1.22000, 0.00000, 0.07125), (1.22625, 0.00000, 0.07250), (1.23125, 0.00000, 0.07375), (1.23625, 0.00000, 0.07625), (1.24000, 0.00000, 0.08250), (1.24250, 0.00000, 0.08750), (1.24500, 0.00000, 0.09250)]
            }

            def Xform "attach_world_12" (
                prepend apiSchemas = ["NewtonRodAttachmentAPI"]
            ) {
                int[] newton:nodeIndices = [12]
            }
        }
        def Xform "curve_8" (  # character 'e'
            prepend apiSchemas = ["NewtonRodAPI", "MaterialBindingAPI"]
        )
        {
            rel material:binding = </World/Looks/CablePhysicsMaterial> (
                bindMaterialAs = "weakerThanDescendants"
            )
            point3f[] newton:points = [(1.39625, 0.00000, 0.12031), (1.40625, 0.00000, 0.11500), (1.31850, 0.00000, 0.11500), (1.41125, 0.00000, 0.09250), (1.39500, 0.00000, 0.12750), (1.39500, 0.00000, 0.13250), (1.39250, 0.00000, 0.13875), (1.39000, 0.00000, 0.14375), (1.38750, 0.00000, 0.14875), (1.38250, 0.00000, 0.15375), (1.37875, 0.00000, 0.15625), (1.37250, 0.00000, 0.15875), (1.36750, 0.00000, 0.16000), (1.36125, 0.00000, 0.16000), (1.35625, 0.00000, 0.16000), (1.35000, 0.00000, 0.16000), (1.34375, 0.00000, 0.15875), (1.33875, 0.00000, 0.15625), (1.33375, 0.00000, 0.15250), (1.32875, 0.00000, 0.14875), (1.32625, 0.00000, 0.14500), (1.32250, 0.00000, 0.13875), (1.32125, 0.00000, 0.13375), (1.32000, 0.00000, 0.12875), (1.31875, 0.00000, 0.12250), (1.39000, 0.00000, 0.11500), (1.38375, 0.00000, 0.11500), (1.37750, 0.00000, 0.11500), (1.37125, 0.00000, 0.11500), (1.36500, 0.00000, 0.11500), (1.35875, 0.00000, 0.11500), (1.35250, 0.00000, 0.11500), (1.34625, 0.00000, 0.11500), (1.33875, 0.00000, 0.11500), (1.33250, 0.00000, 0.11500), (1.32625, 0.00000, 0.11500), (1.40125, 0.00000, 0.11750), (1.31875, 0.00000, 0.10750), (1.32000, 0.00000, 0.10250), (1.32125, 0.00000, 0.09625), (1.32250, 0.00000, 0.09000), (1.32500, 0.00000, 0.08500), (1.32875, 0.00000, 0.08000), (1.33375, 0.00000, 0.07625), (1.33875, 0.00000, 0.07250), (1.34375, 0.00000, 0.07125), (1.35000, 0.00000, 0.07000), (1.35500, 0.00000, 0.06875), (1.36250, 0.00000, 0.06875), (1.36875, 0.00000, 0.06875), (1.37500, 0.00000, 0.06875), (1.38000, 0.00000, 0.07000), (1.38625, 0.00000, 0.07125), (1.39250, 0.00000, 0.07250), (1.39750, 0.00000, 0.07375), (1.40250, 0.00000, 0.07625), (1.40625, 0.00000, 0.08250), (1.40875, 0.00000, 0.08750)]
            float[] newton:radius = [0.00150]
            float newton:contact_ke = 100.0
            float newton:contact_kd = 1.0

            int2[] newton:edges = [(0, 36), (44, 45), (26, 27), (16, 17), (12, 13), (21, 22), (22, 23), (31, 32), (8, 9), (40, 41), (49, 50), (17, 18), (27, 28), (2, 24), (13, 14), (45, 46), (54, 55), (55, 56), (32, 33), (41, 42), (50, 51), (2, 35), (18, 19), (4, 5), (1, 36), (51, 52), (5, 6), (46, 47), (14, 15), (23, 24), (9, 10), (10, 11), (0, 4), (19, 20), (28, 29), (37, 38), (15, 16), (6, 7), (0, 25), (47, 48), (56, 57), (42, 43), (3, 57), (33, 34), (43, 44), (2, 37), (29, 30), (20, 21), (52, 53), (38, 39), (48, 49), (39, 40), (34, 35), (11, 12), (7, 8), (53, 54), (30, 31), (25, 26)]

            float[] newton:stretchStiffness = [1000.44]
            float[] newton:stretchDamping = [1e-05]
            float[] newton:bendStiffness = [0.824]
            float[] newton:bendDamping = [10.0]

            bool newton:wrapInArticulation = true

            def BasisCurves "visual_0" (
                prepend apiSchemas = ["NewtonRodVisualCurveAPI"]
            ) {
                uniform token[] curveType = ["linear"]
                int[] curveVertexCounts = [23]
                int[] newton:rodPointIndices = [0, 4, 5, 6, 7, 8, 9, 10, 11, 12, 13, 14, 15, 16, 17, 18, 19, 20, 21, 22, 23, 24, 2]
                uniform token type = "linear"
                uniform token wrap = "nonperiodic"
                float[] widths = [0.0030, 0.0030, 0.0030, 0.0030, 0.0030, 0.0030, 0.0030, 0.0030, 0.0030, 0.0030, 0.0030, 0.0030, 0.0030, 0.0030, 0.0030, 0.0030, 0.0030, 0.0030, 0.0030, 0.0030, 0.0030, 0.0030, 0.0030]
                point3f[] points = [(1.39625, 0.00000, 0.12031), (1.39500, 0.00000, 0.12750), (1.39500, 0.00000, 0.13250), (1.39250, 0.00000, 0.13875), (1.39000, 0.00000, 0.14375), (1.38750, 0.00000, 0.14875), (1.38250, 0.00000, 0.15375), (1.37875, 0.00000, 0.15625), (1.37250, 0.00000, 0.15875), (1.36750, 0.00000, 0.16000), (1.36125, 0.00000, 0.16000), (1.35625, 0.00000, 0.16000), (1.35000, 0.00000, 0.16000), (1.34375, 0.00000, 0.15875), (1.33875, 0.00000, 0.15625), (1.33375, 0.00000, 0.15250), (1.32875, 0.00000, 0.14875), (1.32625, 0.00000, 0.14500), (1.32250, 0.00000, 0.13875), (1.32125, 0.00000, 0.13375), (1.32000, 0.00000, 0.12875), (1.31875, 0.00000, 0.12250), (1.31850, 0.00000, 0.11500)]
            }
            def BasisCurves "visual_1" (
                prepend apiSchemas = ["NewtonRodVisualCurveAPI"]
            ) {
                uniform token[] curveType = ["linear"]
                int[] curveVertexCounts = [13]
                int[] newton:rodPointIndices = [0, 25, 26, 27, 28, 29, 30, 31, 32, 33, 34, 35, 2]
                uniform token type = "linear"
                uniform token wrap = "nonperiodic"
                float[] widths = [0.0030, 0.0030, 0.0030, 0.0030, 0.0030, 0.0030, 0.0030, 0.0030, 0.0030, 0.0030, 0.0030, 0.0030, 0.0030]
                point3f[] points = [(1.39625, 0.00000, 0.12031), (1.39000, 0.00000, 0.11500), (1.38375, 0.00000, 0.11500), (1.37750, 0.00000, 0.11500), (1.37125, 0.00000, 0.11500), (1.36500, 0.00000, 0.11500), (1.35875, 0.00000, 0.11500), (1.35250, 0.00000, 0.11500), (1.34625, 0.00000, 0.11500), (1.33875, 0.00000, 0.11500), (1.33250, 0.00000, 0.11500), (1.32625, 0.00000, 0.11500), (1.31850, 0.00000, 0.11500)]
            }
            def BasisCurves "visual_2" (
                prepend apiSchemas = ["NewtonRodVisualCurveAPI"]
            ) {
                uniform token[] curveType = ["linear"]
                int[] curveVertexCounts = [3]
                int[] newton:rodPointIndices = [0, 36, 1]
                uniform token type = "linear"
                uniform token wrap = "nonperiodic"
                float[] widths = [0.0030, 0.0030, 0.0030]
                point3f[] points = [(1.39625, 0.00000, 0.12031), (1.40125, 0.00000, 0.11750), (1.40625, 0.00000, 0.11500)]
            }
            def BasisCurves "visual_3" (
                prepend apiSchemas = ["NewtonRodVisualCurveAPI"]
            ) {
                uniform token[] curveType = ["linear"]
                int[] curveVertexCounts = [23]
                int[] newton:rodPointIndices = [2, 37, 38, 39, 40, 41, 42, 43, 44, 45, 46, 47, 48, 49, 50, 51, 52, 53, 54, 55, 56, 57, 3]
                uniform token type = "linear"
                uniform token wrap = "nonperiodic"
                float[] widths = [0.0030, 0.0030, 0.0030, 0.0030, 0.0030, 0.0030, 0.0030, 0.0030, 0.0030, 0.0030, 0.0030, 0.0030, 0.0030, 0.0030, 0.0030, 0.0030, 0.0030, 0.0030, 0.0030, 0.0030, 0.0030, 0.0030, 0.0030]
                point3f[] points = [(1.31850, 0.00000, 0.11500), (1.31875, 0.00000, 0.10750), (1.32000, 0.00000, 0.10250), (1.32125, 0.00000, 0.09625), (1.32250, 0.00000, 0.09000), (1.32500, 0.00000, 0.08500), (1.32875, 0.00000, 0.08000), (1.33375, 0.00000, 0.07625), (1.33875, 0.00000, 0.07250), (1.34375, 0.00000, 0.07125), (1.35000, 0.00000, 0.07000), (1.35500, 0.00000, 0.06875), (1.36250, 0.00000, 0.06875), (1.36875, 0.00000, 0.06875), (1.37500, 0.00000, 0.06875), (1.38000, 0.00000, 0.07000), (1.38625, 0.00000, 0.07125), (1.39250, 0.00000, 0.07250), (1.39750, 0.00000, 0.07375), (1.40250, 0.00000, 0.07625), (1.40625, 0.00000, 0.08250), (1.40875, 0.00000, 0.08750), (1.41125, 0.00000, 0.09250)]
            }

            def Xform "attach_world_12" (
                prepend apiSchemas = ["NewtonRodAttachmentAPI"]
            ) {
                int[] newton:nodeIndices = [12]
            }
        }
        def Xform "curve_9" (  # character 'l'
            prepend apiSchemas = ["NewtonRodAPI", "MaterialBindingAPI"]
        )
        {
            rel material:binding = </World/Looks/CablePhysicsMaterial> (
                bindMaterialAs = "weakerThanDescendants"
            )
            point3f[] newton:points = [(1.49250, 0.00000, 0.19500), (1.49000, 0.00000, 0.07750), (1.49125, 0.00000, 0.18875), (1.49125, 0.00000, 0.18250), (1.49125, 0.00000, 0.17625), (1.49125, 0.00000, 0.17000), (1.49125, 0.00000, 0.16375), (1.49125, 0.00000, 0.15750), (1.49125, 0.00000, 0.15125), (1.49125, 0.00000, 0.14500), (1.49125, 0.00000, 0.13875), (1.49125, 0.00000, 0.13375), (1.49125, 0.00000, 0.12750), (1.49125, 0.00000, 0.12125), (1.49125, 0.00000, 0.11500), (1.49125, 0.00000, 0.10875), (1.49125, 0.00000, 0.10250), (1.49125, 0.00000, 0.09625), (1.49125, 0.00000, 0.09000), (1.49125, 0.00000, 0.08375)]
            float[] newton:radius = [0.00150]
            float newton:contact_ke = 100.0
            float newton:contact_kd = 1.0

            int2[] newton:edges = [(3, 4), (12, 13), (0, 2), (8, 9), (17, 18), (13, 14), (18, 19), (4, 5), (5, 6), (14, 15), (9, 10), (10, 11), (6, 7), (15, 16), (2, 3), (11, 12), (7, 8), (1, 19), (16, 17)]

            float[] newton:stretchStiffness = [1000.44]
            float[] newton:stretchDamping = [1e-05]
            float[] newton:bendStiffness = [0.824]
            float[] newton:bendDamping = [10.0]

            bool newton:wrapInArticulation = true

            def BasisCurves "visual_0" (
                prepend apiSchemas = ["NewtonRodVisualCurveAPI"]
            ) {
                uniform token[] curveType = ["linear"]
                int[] curveVertexCounts = [20]
                int[] newton:rodPointIndices = [0, 2, 3, 4, 5, 6, 7, 8, 9, 10, 11, 12, 13, 14, 15, 16, 17, 18, 19, 1]
                uniform token type = "linear"
                uniform token wrap = "nonperiodic"
                float[] widths = [0.0030, 0.0030, 0.0030, 0.0030, 0.0030, 0.0030, 0.0030, 0.0030, 0.0030, 0.0030, 0.0030, 0.0030, 0.0030, 0.0030, 0.0030, 0.0030, 0.0030, 0.0030, 0.0030, 0.0030]
                point3f[] points = [(1.49250, 0.00000, 0.19500), (1.49125, 0.00000, 0.18875), (1.49125, 0.00000, 0.18250), (1.49125, 0.00000, 0.17625), (1.49125, 0.00000, 0.17000), (1.49125, 0.00000, 0.16375), (1.49125, 0.00000, 0.15750), (1.49125, 0.00000, 0.15125), (1.49125, 0.00000, 0.14500), (1.49125, 0.00000, 0.13875), (1.49125, 0.00000, 0.13375), (1.49125, 0.00000, 0.12750), (1.49125, 0.00000, 0.12125), (1.49125, 0.00000, 0.11500), (1.49125, 0.00000, 0.10875), (1.49125, 0.00000, 0.10250), (1.49125, 0.00000, 0.09625), (1.49125, 0.00000, 0.09000), (1.49125, 0.00000, 0.08375), (1.49000, 0.00000, 0.07750)]
            }

            def Xform "attach_world_0" (
                prepend apiSchemas = ["NewtonRodAttachmentAPI"]
            ) {
                int[] newton:nodeIndices = [0]
            }
        }
    }

    def Scope "Looks"
    {
        def Material "CablePhysicsMaterial" (
            prepend apiSchemas = ["PhysicsMaterialAPI", "NewtonMaterialAPI"]
        )
        {
            float physics:dynamicFriction = 0.5
            float physics:staticFriction = 0.5
            float newton:contactStiffness = 100.0
            float newton:contactDamping = 1.0
        }
    }
}
