#usda 1.0
(
    doc = """AOUSD curve deformable asset: text "NVIDIA"

    Generated by gen_text_rod.py from FreeType-rendered bitmaps.
    Pipeline: render -> threshold -> skeletonize -> simplify -> USD.

    Characters: 6  Curves: 9
    Total nodes: 275  Total edges: 271
    Curve diameter: 3.0mm"""
    defaultPrim = "World"
    metersPerUnit = 1
    upAxis = "Z"
)

def Xform "World"
{
    def Xform "text_rod"
    {
        def Xform "curve_0" (  # character 'N'
            prepend apiSchemas = ["MaterialBindingAPI"]
        )
        {
            rel material:binding = </World/Looks/CablePhysicsMaterial> (
                bindMaterialAs = "weakerThanDescendants"
            )
            def BasisCurves "strand_0" (
                prepend apiSchemas = ["PhysicsDeformableBodyAPI", "PhysicsCurvesDeformableSimAPI"]
            )
            {
                uniform token[] curveType = ["linear"]
                int[] curveVertexCounts = [57]
                uniform token type = "linear"
                uniform token wrap = "nonperiodic"
                float[] widths = [0.0030, 0.0030, 0.0030, 0.0030, 0.0030, 0.0030, 0.0030, 0.0030, 0.0030, 0.0030, 0.0030, 0.0030, 0.0030, 0.0030, 0.0030, 0.0030, 0.0030, 0.0030, 0.0030, 0.0030, 0.0030, 0.0030, 0.0030, 0.0030, 0.0030, 0.0030, 0.0030, 0.0030, 0.0030, 0.0030, 0.0030, 0.0030, 0.0030, 0.0030, 0.0030, 0.0030, 0.0030, 0.0030, 0.0030, 0.0030, 0.0030, 0.0030, 0.0030, 0.0030, 0.0030, 0.0030, 0.0030, 0.0030, 0.0030, 0.0030, 0.0030, 0.0030, 0.0030, 0.0030, 0.0030, 0.0030, 0.0030]
                point3f[] points = [(0.14125, 0.00000, 0.18875), (0.14000, 0.00000, 0.18375), (0.14000, 0.00000, 0.17750), (0.14000, 0.00000, 0.17125), (0.14000, 0.00000, 0.16500), (0.14000, 0.00000, 0.15875), (0.14000, 0.00000, 0.15250), (0.14000, 0.00000, 0.14625), (0.14000, 0.00000, 0.14125), (0.14000, 0.00000, 0.13500), (0.14000, 0.00000, 0.12875), (0.14000, 0.00000, 0.12250), (0.14000, 0.00000, 0.11625), (0.14000, 0.00000, 0.11000), (0.14000, 0.00000, 0.10375), (0.14000, 0.00000, 0.09750), (0.14000, 0.00000, 0.09250), (0.13594, 0.00000, 0.08625), (0.13000, 0.00000, 0.08875), (0.12500, 0.00000, 0.09125), (0.12000, 0.00000, 0.09375), (0.11500, 0.00000, 0.09625), (0.11000, 0.00000, 0.10000), (0.10750, 0.00000, 0.10500), (0.10500, 0.00000, 0.11000), (0.10250, 0.00000, 0.11500), (0.10000, 0.00000, 0.12000), (0.09625, 0.00000, 0.12500), (0.09375, 0.00000, 0.13000), (0.09125, 0.00000, 0.13500), (0.08875, 0.00000, 0.14000), (0.08625, 0.00000, 0.14500), (0.08375, 0.00000, 0.15000), (0.08125, 0.00000, 0.15500), (0.07875, 0.00000, 0.16000), (0.07500, 0.00000, 0.16500), (0.07125, 0.00000, 0.16875), (0.06625, 0.00000, 0.17125), (0.06000, 0.00000, 0.17500), (0.05500, 0.00000, 0.17625), (0.04875, 0.00000, 0.17906), (0.04500, 0.00000, 0.17375), (0.04500, 0.00000, 0.16750), (0.04500, 0.00000, 0.16000), (0.04500, 0.00000, 0.15375), (0.04500, 0.00000, 0.14750), (0.04500, 0.00000, 0.14125), (0.04500, 0.00000, 0.13500), (0.04500, 0.00000, 0.12875), (0.04500, 0.00000, 0.12250), (0.04500, 0.00000, 0.11500), (0.04500, 0.00000, 0.10875), (0.04500, 0.00000, 0.10250), (0.04500, 0.00000, 0.09625), (0.04500, 0.00000, 0.09000), (0.04500, 0.00000, 0.08375), (0.04375, 0.00000, 0.07750)]
            }
            def PhysicsAttachment "fixed_point_0"
            {
                rel physics:src0 = </World/text_rod/curve_0/strand_0>
                rel physics:src1 = </World>
                uniform token physics:type0 = "point"
                uniform token physics:type1 = "xform"
                int[] physics:indices0 = [0]
                int[] physics:indices1 = []
                vector3f[] physics:coords0 = []
                vector3f[] physics:coords1 = [(0.14125, 0.00000, 0.18875)]
                float physics:stiffness = inf
                float physics:damping = 0.0
            }
        }
        def Xform "curve_1" (  # character 'V'
            prepend apiSchemas = ["MaterialBindingAPI"]
        )
        {
            rel material:binding = </World/Looks/CablePhysicsMaterial> (
                bindMaterialAs = "weakerThanDescendants"
            )
            def BasisCurves "strand_0" (
                prepend apiSchemas = ["PhysicsDeformableBodyAPI", "PhysicsCurvesDeformableSimAPI"]
            )
            {
                uniform token[] curveType = ["linear"]
                int[] curveVertexCounts = [53]
                uniform token type = "linear"
                uniform token wrap = "nonperiodic"
                float[] widths = [0.0030, 0.0030, 0.0030, 0.0030, 0.0030, 0.0030, 0.0030, 0.0030, 0.0030, 0.0030, 0.0030, 0.0030, 0.0030, 0.0030, 0.0030, 0.0030, 0.0030, 0.0030, 0.0030, 0.0030, 0.0030, 0.0030, 0.0030, 0.0030, 0.0030, 0.0030, 0.0030, 0.0030, 0.0030, 0.0030, 0.0030, 0.0030, 0.0030, 0.0030, 0.0030, 0.0030, 0.0030, 0.0030, 0.0030, 0.0030, 0.0030, 0.0030, 0.0030, 0.0030, 0.0030, 0.0030, 0.0030, 0.0030, 0.0030, 0.0030, 0.0030, 0.0030, 0.0030]
                point3f[] points = [(0.35875, 0.00000, 0.20500), (0.35375, 0.00000, 0.20125), (0.34875, 0.00000, 0.19875), (0.34375, 0.00000, 0.19625), (0.33875, 0.00000, 0.19375), (0.33500, 0.00000, 0.18875), (0.33250, 0.00000, 0.18250), (0.33125, 0.00000, 0.17750), (0.32875, 0.00000, 0.17250), (0.32750, 0.00000, 0.16625), (0.32500, 0.00000, 0.16125), (0.32375, 0.00000, 0.15625), (0.32125, 0.00000, 0.15000), (0.31875, 0.00000, 0.14500), (0.31750, 0.00000, 0.14000), (0.31500, 0.00000, 0.13375), (0.31375, 0.00000, 0.12875), (0.31125, 0.00000, 0.12250), (0.30875, 0.00000, 0.11750), (0.30750, 0.00000, 0.11250), (0.30500, 0.00000, 0.10625), (0.30375, 0.00000, 0.10125), (0.30125, 0.00000, 0.09625), (0.29875, 0.00000, 0.09000), (0.29500, 0.00000, 0.08500), (0.29000, 0.00000, 0.08250), (0.28500, 0.00000, 0.08000), (0.28000, 0.00000, 0.08125), (0.27500, 0.00000, 0.08375), (0.27000, 0.00000, 0.08750), (0.26750, 0.00000, 0.09375), (0.26500, 0.00000, 0.09875), (0.26375, 0.00000, 0.10375), (0.26125, 0.00000, 0.11000), (0.26000, 0.00000, 0.11500), (0.25750, 0.00000, 0.12000), (0.25500, 0.00000, 0.12625), (0.25375, 0.00000, 0.13125), (0.25125, 0.00000, 0.13625), (0.25000, 0.00000, 0.14250), (0.24750, 0.00000, 0.14750), (0.24500, 0.00000, 0.15375), (0.24375, 0.00000, 0.15875), (0.24125, 0.00000, 0.16375), (0.24000, 0.00000, 0.17000), (0.23750, 0.00000, 0.17500), (0.23625, 0.00000, 0.18000), (0.23375, 0.00000, 0.18625), (0.23125, 0.00000, 0.19125), (0.22625, 0.00000, 0.19500), (0.22125, 0.00000, 0.19750), (0.21625, 0.00000, 0.20125), (0.21125, 0.00000, 0.20375)]
            }
            def PhysicsAttachment "fixed_point_0"
            {
                rel physics:src0 = </World/text_rod/curve_1/strand_0>
                rel physics:src1 = </World>
                uniform token physics:type0 = "point"
                uniform token physics:type1 = "xform"
                int[] physics:indices0 = [0]
                int[] physics:indices1 = []
                vector3f[] physics:coords0 = []
                vector3f[] physics:coords1 = [(0.35875, 0.00000, 0.20500)]
                float physics:stiffness = inf
                float physics:damping = 0.0
            }
        }
        def Xform "curve_2" (  # character 'I'
            prepend apiSchemas = ["MaterialBindingAPI"]
        )
        {
            rel material:binding = </World/Looks/CablePhysicsMaterial> (
                bindMaterialAs = "weakerThanDescendants"
            )
            def BasisCurves "strand_0" (
                prepend apiSchemas = ["PhysicsDeformableBodyAPI", "PhysicsCurvesDeformableSimAPI"]
            )
            {
                uniform token[] curveType = ["linear"]
                int[] curveVertexCounts = [19]
                uniform token type = "linear"
                uniform token wrap = "nonperiodic"
                float[] widths = [0.0030, 0.0030, 0.0030, 0.0030, 0.0030, 0.0030, 0.0030, 0.0030, 0.0030, 0.0030, 0.0030, 0.0030, 0.0030, 0.0030, 0.0030, 0.0030, 0.0030, 0.0030, 0.0030]
                point3f[] points = [(0.43000, 0.00000, 0.18750), (0.42875, 0.00000, 0.18250), (0.42875, 0.00000, 0.17625), (0.42875, 0.00000, 0.17000), (0.42875, 0.00000, 0.16375), (0.42875, 0.00000, 0.15750), (0.42875, 0.00000, 0.15125), (0.42875, 0.00000, 0.14500), (0.42875, 0.00000, 0.13875), (0.42875, 0.00000, 0.13375), (0.42875, 0.00000, 0.12750), (0.42875, 0.00000, 0.12125), (0.42875, 0.00000, 0.11500), (0.42875, 0.00000, 0.10875), (0.42875, 0.00000, 0.10250), (0.42875, 0.00000, 0.09625), (0.42875, 0.00000, 0.09000), (0.42875, 0.00000, 0.08375), (0.42750, 0.00000, 0.07875)]
            }
            def PhysicsAttachment "fixed_point_0"
            {
                rel physics:src0 = </World/text_rod/curve_2/strand_0>
                rel physics:src1 = </World>
                uniform token physics:type0 = "point"
                uniform token physics:type1 = "xform"
                int[] physics:indices0 = [0]
                int[] physics:indices1 = []
                vector3f[] physics:coords0 = []
                vector3f[] physics:coords1 = [(0.43000, 0.00000, 0.18750)]
                float physics:stiffness = inf
                float physics:damping = 0.0
            }
        }
        def Xform "curve_3" (  # character 'D'
            prepend apiSchemas = ["MaterialBindingAPI"]
        )
        {
            rel material:binding = </World/Looks/CablePhysicsMaterial> (
                bindMaterialAs = "weakerThanDescendants"
            )
            def BasisCurves "strand_0" (
                prepend apiSchemas = ["PhysicsDeformableBodyAPI", "PhysicsCurvesDeformableSimAPI"]
            )
            {
                uniform token[] curveType = ["linear"]
                int[] curveVertexCounts = [62]
                uniform token type = "linear"
                uniform token wrap = "periodic"
                float[] widths = [0.0030, 0.0030, 0.0030, 0.0030, 0.0030, 0.0030, 0.0030, 0.0030, 0.0030, 0.0030, 0.0030, 0.0030, 0.0030, 0.0030, 0.0030, 0.0030, 0.0030, 0.0030, 0.0030, 0.0030, 0.0030, 0.0030, 0.0030, 0.0030, 0.0030, 0.0030, 0.0030, 0.0030, 0.0030, 0.0030, 0.0030, 0.0030, 0.0030, 0.0030, 0.0030, 0.0030, 0.0030, 0.0030, 0.0030, 0.0030, 0.0030, 0.0030, 0.0030, 0.0030, 0.0030, 0.0030, 0.0030, 0.0030, 0.0030, 0.0030, 0.0030, 0.0030, 0.0030, 0.0030, 0.0030, 0.0030, 0.0030, 0.0030, 0.0030, 0.0030, 0.0030, 0.0030]
                point3f[] points = [(0.54000, 0.00000, 0.19250), (0.54625, 0.00000, 0.19250), (0.55250, 0.00000, 0.19250), (0.55875, 0.00000, 0.19250), (0.56500, 0.00000, 0.19250), (0.57000, 0.00000, 0.19125), (0.57625, 0.00000, 0.19125), (0.58250, 0.00000, 0.19125), (0.58875, 0.00000, 0.19000), (0.59375, 0.00000, 0.18875), (0.60000, 0.00000, 0.18625), (0.60500, 0.00000, 0.18375), (0.61000, 0.00000, 0.18125), (0.61500, 0.00000, 0.17750), (0.61750, 0.00000, 0.17375), (0.62250, 0.00000, 0.16875), (0.62500, 0.00000, 0.16375), (0.62750, 0.00000, 0.15750), (0.62875, 0.00000, 0.15250), (0.63000, 0.00000, 0.14625), (0.63125, 0.00000, 0.14125), (0.63125, 0.00000, 0.13500), (0.63125, 0.00000, 0.12875), (0.63000, 0.00000, 0.12250), (0.63000, 0.00000, 0.11625), (0.62875, 0.00000, 0.11000), (0.62625, 0.00000, 0.10500), (0.62375, 0.00000, 0.10000), (0.62125, 0.00000, 0.09500), (0.61750, 0.00000, 0.09000), (0.61250, 0.00000, 0.08625), (0.60875, 0.00000, 0.08375), (0.60250, 0.00000, 0.08000), (0.59750, 0.00000, 0.07750), (0.59250, 0.00000, 0.07625), (0.58625, 0.00000, 0.07500), (0.58000, 0.00000, 0.07500), (0.57375, 0.00000, 0.07375), (0.56750, 0.00000, 0.07375), (0.56125, 0.00000, 0.07375), (0.55500, 0.00000, 0.07375), (0.54875, 0.00000, 0.07375), (0.54250, 0.00000, 0.07375), (0.53750, 0.00000, 0.07500), (0.53375, 0.00000, 0.08000), (0.53375, 0.00000, 0.08625), (0.53375, 0.00000, 0.09250), (0.53375, 0.00000, 0.09875), (0.53375, 0.00000, 0.10500), (0.53375, 0.00000, 0.11125), (0.53375, 0.00000, 0.11750), (0.53375, 0.00000, 0.12375), (0.53375, 0.00000, 0.13000), (0.53375, 0.00000, 0.13625), (0.53375, 0.00000, 0.14250), (0.53375, 0.00000, 0.14875), (0.53375, 0.00000, 0.15500), (0.53375, 0.00000, 0.16125), (0.53375, 0.00000, 0.16750), (0.53375, 0.00000, 0.17375), (0.53375, 0.00000, 0.18000), (0.53375, 0.00000, 0.18625)]
            }
            def PhysicsAttachment "fixed_point_0"
            {
                rel physics:src0 = </World/text_rod/curve_3/strand_0>
                rel physics:src1 = </World>
                uniform token physics:type0 = "point"
                uniform token physics:type1 = "xform"
                int[] physics:indices0 = [0]
                int[] physics:indices1 = []
                vector3f[] physics:coords0 = []
                vector3f[] physics:coords1 = [(0.54000, 0.00000, 0.19250)]
                float physics:stiffness = inf
                float physics:damping = 0.0
            }
        }
        def Xform "curve_4" (  # character 'I'
            prepend apiSchemas = ["MaterialBindingAPI"]
        )
        {
            rel material:binding = </World/Looks/CablePhysicsMaterial> (
                bindMaterialAs = "weakerThanDescendants"
            )
            def BasisCurves "strand_0" (
                prepend apiSchemas = ["PhysicsDeformableBodyAPI", "PhysicsCurvesDeformableSimAPI"]
            )
            {
                uniform token[] curveType = ["linear"]
                int[] curveVertexCounts = [19]
                uniform token type = "linear"
                uniform token wrap = "nonperiodic"
                float[] widths = [0.0030, 0.0030, 0.0030, 0.0030, 0.0030, 0.0030, 0.0030, 0.0030, 0.0030, 0.0030, 0.0030, 0.0030, 0.0030, 0.0030, 0.0030, 0.0030, 0.0030, 0.0030, 0.0030]
                point3f[] points = [(0.73125, 0.00000, 0.18750), (0.73000, 0.00000, 0.18250), (0.73000, 0.00000, 0.17625), (0.73000, 0.00000, 0.17000), (0.73000, 0.00000, 0.16375), (0.73000, 0.00000, 0.15750), (0.73000, 0.00000, 0.15125), (0.73000, 0.00000, 0.14500), (0.73000, 0.00000, 0.13875), (0.73000, 0.00000, 0.13375), (0.73000, 0.00000, 0.12750), (0.73000, 0.00000, 0.12125), (0.73000, 0.00000, 0.11500), (0.73000, 0.00000, 0.10875), (0.73000, 0.00000, 0.10250), (0.73000, 0.00000, 0.09625), (0.73000, 0.00000, 0.09000), (0.73000, 0.00000, 0.08375), (0.72875, 0.00000, 0.07875)]
            }
            def PhysicsAttachment "fixed_point_0"
            {
                rel physics:src0 = </World/text_rod/curve_4/strand_0>
                rel physics:src1 = </World>
                uniform token physics:type0 = "point"
                uniform token physics:type1 = "xform"
                int[] physics:indices0 = [0]
                int[] physics:indices1 = []
                vector3f[] physics:coords0 = []
                vector3f[] physics:coords1 = [(0.73125, 0.00000, 0.18750)]
                float physics:stiffness = inf
                float physics:damping = 0.0
            }
        }
        def Xform "curve_5" (  # character 'A'
            prepend apiSchemas = ["MaterialBindingAPI"]
        )
        {
            rel material:binding = </World/Looks/CablePhysicsMaterial> (
                bindMaterialAs = "weakerThanDescendants"
            )
            def BasisCurves "strand_0" (
                prepend apiSchemas = ["PhysicsDeformableBodyAPI", "PhysicsCurvesDeformableSimAPI"]
            )
            {
                uniform token[] curveType = ["linear"]
                int[] curveVertexCounts = [34]
                uniform token type = "linear"
                uniform token wrap = "nonperiodic"
                float[] widths = [0.0030, 0.0030, 0.0030, 0.0030, 0.0030, 0.0030, 0.0030, 0.0030, 0.0030, 0.0030, 0.0030, 0.0030, 0.0030, 0.0030, 0.0030, 0.0030, 0.0030, 0.0030, 0.0030, 0.0030, 0.0030, 0.0030, 0.0030, 0.0030, 0.0030, 0.0030, 0.0030, 0.0030, 0.0030, 0.0030, 0.0030, 0.0030, 0.0030, 0.0030]
                point3f[] points = [(0.83875, 0.00000, 0.10406), (0.84000, 0.00000, 0.11125), (0.84125, 0.00000, 0.11625), (0.84250, 0.00000, 0.12250), (0.84250, 0.00000, 0.12875), (0.84500, 0.00000, 0.13375), (0.84625, 0.00000, 0.13875), (0.84875, 0.00000, 0.14375), (0.85000, 0.00000, 0.15000), (0.85250, 0.00000, 0.15500), (0.85375, 0.00000, 0.16000), (0.85625, 0.00000, 0.16625), (0.85750, 0.00000, 0.17125), (0.86000, 0.00000, 0.17625), (0.86250, 0.00000, 0.18250), (0.86750, 0.00000, 0.18500), (0.87250, 0.00000, 0.18750), (0.87750, 0.00000, 0.18750), (0.88375, 0.00000, 0.18500), (0.88750, 0.00000, 0.18250), (0.89125, 0.00000, 0.17625), (0.89250, 0.00000, 0.17125), (0.89500, 0.00000, 0.16625), (0.89625, 0.00000, 0.16125), (0.89875, 0.00000, 0.15500), (0.90000, 0.00000, 0.15000), (0.90250, 0.00000, 0.14500), (0.90375, 0.00000, 0.13875), (0.90625, 0.00000, 0.13375), (0.90750, 0.00000, 0.12875), (0.90875, 0.00000, 0.12250), (0.91000, 0.00000, 0.11625), (0.91000, 0.00000, 0.11125), (0.91125, 0.00000, 0.10406)]
            }
            def BasisCurves "strand_1" (
                prepend apiSchemas = ["PhysicsDeformableBodyAPI", "PhysicsCurvesDeformableSimAPI"]
            )
            {
                uniform token[] curveType = ["linear"]
                int[] curveVertexCounts = [11]
                uniform token type = "linear"
                uniform token wrap = "nonperiodic"
                float[] widths = [0.0030, 0.0030, 0.0030, 0.0030, 0.0030, 0.0030, 0.0030, 0.0030, 0.0030, 0.0030, 0.0030]
                point3f[] points = [(0.83875, 0.00000, 0.10406), (0.83250, 0.00000, 0.10000), (0.83000, 0.00000, 0.09500), (0.82750, 0.00000, 0.08875), (0.82625, 0.00000, 0.08375), (0.82375, 0.00000, 0.07750), (0.82125, 0.00000, 0.07250), (0.81625, 0.00000, 0.07000), (0.81125, 0.00000, 0.06625), (0.80500, 0.00000, 0.06375), (0.80000, 0.00000, 0.06125)]
            }
            def BasisCurves "strand_2" (
                prepend apiSchemas = ["PhysicsDeformableBodyAPI", "PhysicsCurvesDeformableSimAPI"]
            )
            {
                uniform token[] curveType = ["linear"]
                int[] curveVertexCounts = [13]
                uniform token type = "linear"
                uniform token wrap = "nonperiodic"
                float[] widths = [0.0030, 0.0030, 0.0030, 0.0030, 0.0030, 0.0030, 0.0030, 0.0030, 0.0030, 0.0030, 0.0030, 0.0030, 0.0030]
                point3f[] points = [(0.83875, 0.00000, 0.10406), (0.84500, 0.00000, 0.10000), (0.85125, 0.00000, 0.10000), (0.85625, 0.00000, 0.10000), (0.86250, 0.00000, 0.10000), (0.86875, 0.00000, 0.10000), (0.87500, 0.00000, 0.10000), (0.88125, 0.00000, 0.10000), (0.88750, 0.00000, 0.10000), (0.89375, 0.00000, 0.10000), (0.89875, 0.00000, 0.10000), (0.90500, 0.00000, 0.10000), (0.91125, 0.00000, 0.10406)]
            }
            def BasisCurves "strand_3" (
                prepend apiSchemas = ["PhysicsDeformableBodyAPI", "PhysicsCurvesDeformableSimAPI"]
            )
            {
                uniform token[] curveType = ["linear"]
                int[] curveVertexCounts = [11]
                uniform token type = "linear"
                uniform token wrap = "nonperiodic"
                float[] widths = [0.0030, 0.0030, 0.0030, 0.0030, 0.0030, 0.0030, 0.0030, 0.0030, 0.0030, 0.0030, 0.0030]
                point3f[] points = [(0.91125, 0.00000, 0.10406), (0.91750, 0.00000, 0.10000), (0.92000, 0.00000, 0.09500), (0.92250, 0.00000, 0.08875), (0.92375, 0.00000, 0.08375), (0.92625, 0.00000, 0.07750), (0.92875, 0.00000, 0.07250), (0.93375, 0.00000, 0.07000), (0.94000, 0.00000, 0.06625), (0.94500, 0.00000, 0.06375), (0.95000, 0.00000, 0.06125)]
            }
            def PhysicsAttachment "junction_0_1"
            {
                rel physics:src0 = </World/text_rod/curve_5/strand_1>
                rel physics:src1 = </World/text_rod/curve_5/strand_0>
                uniform token physics:type0 = "point"
                uniform token physics:type1 = "point"
                int[] physics:indices0 = [0]
                int[] physics:indices1 = [0]
                vector3f[] physics:coords0 = []
                vector3f[] physics:coords1 = []
                float physics:stiffness = inf
                float physics:damping = 0.0
            }
            def PhysicsAttachment "junction_0_2"
            {
                rel physics:src0 = </World/text_rod/curve_5/strand_2>
                rel physics:src1 = </World/text_rod/curve_5/strand_0>
                uniform token physics:type0 = "point"
                uniform token physics:type1 = "point"
                int[] physics:indices0 = [0]
                int[] physics:indices1 = [0]
                vector3f[] physics:coords0 = []
                vector3f[] physics:coords1 = []
                float physics:stiffness = inf
                float physics:damping = 0.0
            }
            def PhysicsAttachment "junction_1_1"
            {
                rel physics:src0 = </World/text_rod/curve_5/strand_2>
                rel physics:src1 = </World/text_rod/curve_5/strand_0>
                uniform token physics:type0 = "point"
                uniform token physics:type1 = "point"
                int[] physics:indices0 = [12]
                int[] physics:indices1 = [33]
                vector3f[] physics:coords0 = []
                vector3f[] physics:coords1 = []
                float physics:stiffness = inf
                float physics:damping = 0.0
            }
            def PhysicsAttachment "junction_1_2"
            {
                rel physics:src0 = </World/text_rod/curve_5/strand_3>
                rel physics:src1 = </World/text_rod/curve_5/strand_0>
                uniform token physics:type0 = "point"
                uniform token physics:type1 = "point"
                int[] physics:indices0 = [0]
                int[] physics:indices1 = [33]
                vector3f[] physics:coords0 = []
                vector3f[] physics:coords1 = []
                float physics:stiffness = inf
                float physics:damping = 0.0
            }
            def PhysicsAttachment "fixed_point_19"
            {
                rel physics:src0 = </World/text_rod/curve_5/strand_0>
                rel physics:src1 = </World>
                uniform token physics:type0 = "point"
                uniform token physics:type1 = "xform"
                int[] physics:indices0 = [16]
                int[] physics:indices1 = []
                vector3f[] physics:coords0 = []
                vector3f[] physics:coords1 = [(0.87250, 0.00000, 0.18750)]
                float physics:stiffness = inf
                float physics:damping = 0.0
            }
        }
    }

    def Scope "Looks"
    {
        def Material "CablePhysicsMaterial" (
            prepend apiSchemas = ["PhysicsMaterialAPI", "PhysicsCurvesDeformableMaterialAPI", "NewtonMaterialAPI", "NewtonCurvesDeformableMaterialAPI"]
        )
        {
            float physics:thickness = 0.003
            float physics:stretchStiffness = 1000.44
            float physics:bendStiffness = 0.824
            float newton:stretchDamping = 1e-05
            float newton:bendDamping = 10.0
            float physics:dynamicFriction = 0.5
            float physics:staticFriction = 0.5
            float newton:contactStiffness = 100.0
            float newton:contactDamping = 1.0
        }
    }
}
